{"glyphs":{"0":{"ha":770,"x_min":81,"x_max":688,"o":"m 688 412 q 612 95 688 203 q 386 -14 535 -14 q 161 93 239 -14 q 81 401 83 199 l 81 578 q 159 894 81 787 q 385 1001 236 1001 q 608 898 531 1001 q 688 593 686 794 l 688 412 m 607 589 q 552 845 607 758 q 385 932 496 932 q 219 847 275 932 q 162 597 163 762 l 162 403 q 219 144 162 234 q 386 55 277 55 q 550 142 494 55 q 607 399 606 230 l 607 589 z "},"1":{"ha":770,"x_min":121,"x_max":471,"o":"m 471 0 l 389 0 l 389 890 l 121 790 l 121 866 l 457 991 l 471 991 l 471 0 z "},"2":{"ha":770,"x_min":71,"x_max":711,"o":"m 711 0 l 93 0 l 93 62 l 431 446 q 548 606 515 543 q 581 729 581 669 q 526 877 581 823 q 374 932 471 932 q 213 868 275 932 q 152 703 152 804 l 71 703 q 109 854 71 786 q 216 962 146 923 q 374 1001 286 1001 q 586 930 510 1001 q 663 736 663 859 q 620 585 663 667 q 468 380 576 503 l 193 68 l 711 68 l 711 0 z "},"3":{"ha":770,"x_min":66,"x_max":686,"o":"m 273 538 l 357 538 q 479 563 427 538 q 559 630 532 587 q 587 730 587 673 q 533 878 587 825 q 379 932 479 932 q 223 876 284 932 q 163 728 163 820 l 81 728 q 120 868 81 805 q 227 966 159 932 q 379 1001 296 1001 q 591 928 513 1001 q 668 727 668 854 q 623 596 668 656 q 499 506 578 536 q 639 417 591 480 q 686 268 686 355 q 604 64 686 141 q 382 -14 521 -14 q 221 22 294 -14 q 107 120 147 57 q 66 268 66 184 l 148 268 q 214 114 148 174 q 382 55 279 55 q 546 109 488 55 q 605 265 605 163 q 542 416 605 364 q 355 469 478 469 l 273 469 l 273 538 z "},"4":{"ha":770,"x_min":45,"x_max":745,"o":"m 591 318 l 745 318 l 745 250 l 591 250 l 591 0 l 510 0 l 510 250 l 45 250 l 45 296 l 503 987 l 591 987 l 591 318 m 145 318 l 510 318 l 510 882 l 474 820 l 145 318 z "},"5":{"ha":770,"x_min":114,"x_max":709,"o":"m 148 506 l 196 987 l 690 987 l 690 912 l 266 912 l 231 578 q 417 633 311 633 q 630 546 551 633 q 709 315 709 459 q 632 73 709 159 q 414 -14 555 -14 q 205 58 286 -14 q 114 260 125 130 l 192 260 q 260 107 203 159 q 414 55 317 55 q 574 122 520 55 q 628 313 628 189 q 568 490 628 422 q 403 559 507 559 q 302 544 345 559 q 212 488 260 530 l 148 506 z "},"6":{"ha":770,"x_min":88,"x_max":700,"o":"m 572 995 l 572 924 l 562 924 q 283 820 385 924 q 171 530 182 715 q 275 617 212 587 q 416 648 338 648 q 623 558 546 648 q 700 323 700 469 q 664 150 700 227 q 561 30 628 73 q 408 -14 494 -14 q 177 89 266 -14 q 88 355 88 192 l 88 436 q 209 847 88 701 q 551 995 330 992 l 572 995 m 403 578 q 259 533 326 578 q 170 416 192 487 l 170 347 q 236 137 170 218 q 408 56 302 56 q 561 131 503 56 q 620 321 620 206 q 561 508 620 437 q 403 578 503 578 z "},"7":{"ha":770,"x_min":52,"x_max":701,"o":"m 701 941 l 279 0 l 195 0 l 614 918 l 52 918 l 52 987 l 701 987 l 701 941 z "},"8":{"ha":770,"x_min":72,"x_max":701,"o":"m 675 733 q 630 596 675 656 q 512 507 585 535 q 649 412 597 477 q 701 262 701 347 q 614 61 701 135 q 387 -14 528 -14 q 158 60 243 -14 q 72 262 72 134 q 121 412 72 346 q 257 507 171 477 q 140 596 184 535 q 97 733 97 656 q 176 928 97 856 q 385 1001 255 1001 q 595 928 515 1001 q 675 733 675 854 m 619 261 q 553 413 619 353 q 385 472 488 472 q 218 414 283 472 q 153 261 153 355 q 216 111 153 167 q 387 55 279 55 q 555 111 492 55 q 619 261 619 166 m 593 734 q 535 875 593 819 q 385 932 476 932 q 236 877 293 932 q 178 734 178 823 q 236 594 178 647 q 386 541 293 541 q 535 594 477 541 q 593 734 593 648 z "},"9":{"ha":770,"x_min":68,"x_max":681,"o":"m 600 457 q 492 358 556 393 q 352 323 427 323 q 203 367 268 323 q 104 487 139 410 q 68 654 68 564 q 106 832 68 752 q 211 957 144 912 q 367 1001 279 1001 q 598 897 515 1001 q 681 602 681 793 l 681 528 q 567 127 681 261 q 219 -7 453 -7 l 204 -7 l 205 63 l 233 63 q 503 163 410 66 q 600 457 595 261 m 362 393 q 508 442 444 393 q 600 568 573 490 l 600 614 q 537 848 600 765 q 368 931 475 931 q 210 853 272 931 q 149 658 149 776 q 208 469 149 545 q 362 393 267 393 z "},"\u0000":{"ha":0,"x_min":0,"x_max":0,"o":""},"\r":{"ha":338,"x_min":0,"x_max":0,"o":""}," ":{"ha":338,"x_min":0,"x_max":0,"o":""},"!":{"ha":313,"x_min":104,"x_max":216,"o":"m 193 275 l 117 275 l 113 987 l 197 987 l 193 275 m 104 47 q 119 86 104 71 q 159 102 134 102 q 200 86 185 102 q 216 47 216 71 q 200 10 216 25 q 159 -5 185 -5 q 119 10 134 -5 q 104 47 104 25 z "},"\"":{"ha":399,"x_min":97,"x_max":325,"o":"m 165 947 l 151 734 l 97 734 l 99 1042 l 165 1042 l 165 947 m 325 947 l 311 734 l 256 734 l 259 1042 l 325 1042 l 325 947 z "},"#":{"ha":808,"x_min":58,"x_max":814,"o":"m 511 278 l 298 278 l 245 0 l 178 0 l 231 278 l 58 278 l 58 341 l 242 341 l 298 640 l 109 640 l 109 705 l 311 705 l 364 987 l 431 987 l 378 705 l 591 705 l 645 987 l 713 987 l 659 705 l 814 705 l 814 640 l 647 640 l 591 341 l 764 341 l 764 278 l 578 278 l 526 0 l 458 0 l 511 278 m 309 341 l 523 341 l 579 640 l 366 640 l 309 341 z "},"$":{"ha":770,"x_min":78,"x_max":692,"o":"m 611 243 q 562 367 611 319 q 390 457 513 414 q 175 571 237 505 q 113 743 113 637 q 181 922 113 853 q 366 1000 249 991 l 366 1137 l 435 1137 l 435 1000 q 620 911 554 989 q 685 697 685 832 l 604 697 q 549 866 604 804 q 398 929 494 929 q 248 879 302 929 q 194 744 194 828 q 243 617 194 663 q 412 531 293 571 q 585 453 531 490 q 666 366 639 416 q 692 245 692 315 q 623 65 692 134 q 432 -12 553 -3 l 432 -141 l 363 -141 l 363 -13 q 153 73 227 -4 q 78 283 78 150 l 159 283 q 221 118 159 178 q 393 58 283 58 q 550 109 490 58 q 611 243 611 161 z "},"%":{"ha":1026,"x_min":74,"x_max":958,"o":"m 74 798 q 129 944 74 886 q 267 1002 183 1002 q 406 944 351 1002 q 460 793 460 886 l 460 745 q 407 601 460 659 q 269 543 353 543 q 130 600 185 543 q 74 750 74 656 l 74 798 m 140 745 q 175 642 140 682 q 269 601 210 601 q 360 642 326 601 q 395 748 395 683 l 395 798 q 359 902 395 861 q 267 943 324 943 q 175 902 211 943 q 140 793 140 861 l 140 745 m 571 242 q 626 388 571 330 q 764 446 680 446 q 902 388 847 446 q 958 237 958 331 l 958 189 q 903 43 958 101 q 765 -14 848 -14 q 626 43 682 -14 q 571 193 571 100 l 571 242 m 636 189 q 671 85 636 125 q 765 44 706 44 q 858 85 823 44 q 892 193 892 126 l 892 242 q 857 347 892 307 q 764 387 822 387 q 671 347 707 387 q 636 239 636 307 l 636 189 m 294 82 l 243 115 l 726 886 l 777 854 l 294 82 z "},"&":{"ha":854,"x_min":73,"x_max":835,"o":"m 274 538 q 188 666 215 610 q 161 777 161 722 q 223 941 161 880 q 389 1001 285 1001 q 541 946 483 1001 q 600 808 600 892 q 487 616 600 710 l 378 532 l 650 216 q 711 441 711 315 l 787 441 q 700 157 787 273 l 835 0 l 737 0 l 652 99 q 528 16 598 46 q 380 -14 458 -14 q 156 59 239 -14 q 73 252 73 131 q 116 388 73 323 q 264 532 158 452 l 274 538 m 380 55 q 499 81 441 55 q 604 155 557 107 l 328 475 l 318 486 l 287 462 q 154 252 154 353 q 215 109 154 163 q 380 55 276 55 m 243 779 q 334 584 243 696 l 423 652 q 494 720 467 683 q 522 808 522 758 q 486 896 522 861 q 388 932 449 932 q 282 889 321 932 q 243 779 243 846 z "},"'":{"ha":236,"x_min":81,"x_max":153,"o":"m 153 946 l 142 739 l 81 739 q 84 1042 84 940 l 153 1042 l 153 946 z "},"(":{"ha":443,"x_min":95,"x_max":421,"o":"m 95 399 q 133 686 95 547 q 244 941 171 825 q 401 1107 317 1057 l 421 1052 q 332 959 376 1020 q 254 814 288 898 q 198 625 219 730 q 176 387 176 520 q 209 115 176 245 q 297 -116 241 -16 q 421 -267 353 -216 l 401 -319 q 242 -152 315 -267 q 132 101 169 -37 q 95 399 95 239 z "},")":{"ha":452,"x_min":22,"x_max":349,"o":"m 349 389 q 312 101 349 239 q 202 -151 275 -37 q 42 -319 130 -266 l 22 -267 q 145 -119 89 -219 q 235 113 202 -20 q 267 401 267 245 q 235 672 267 541 q 145 905 202 802 q 22 1055 87 1008 l 42 1107 q 200 940 127 1055 q 311 686 273 825 q 349 389 349 546 z "},"*":{"ha":589,"x_min":20,"x_max":571,"o":"m 245 678 l 20 751 l 41 820 l 267 736 l 264 987 l 334 987 l 329 734 l 549 821 l 571 752 l 345 674 l 496 475 l 439 432 l 294 639 l 155 433 l 98 475 l 245 678 z "},"+":{"ha":784,"x_min":51,"x_max":728,"o":"m 427 502 l 728 502 l 728 426 l 427 426 l 427 99 l 345 99 l 345 426 l 51 426 l 51 502 l 345 502 l 345 818 l 427 818 l 427 502 z "},",":{"ha":266,"x_min":41,"x_max":184,"o":"m 89 -184 l 41 -149 q 104 22 102 -66 l 104 127 l 184 127 l 184 43 q 89 -184 184 -98 z "},"-":{"ha":397,"x_min":33,"x_max":358,"o":"m 358 401 l 33 401 l 33 470 l 358 470 l 358 401 z "},".":{"ha":332,"x_min":98,"x_max":214,"o":"m 98 49 q 114 89 98 73 q 156 106 129 106 q 199 89 183 106 q 214 49 214 73 q 199 10 214 25 q 156 -5 183 -5 q 114 10 129 -5 q 98 49 98 25 z "},"/":{"ha":551,"x_min":20,"x_max":506,"o":"m 94 -85 l 20 -85 l 433 987 l 506 987 l 94 -85 z "},":":{"ha":292,"x_min":86,"x_max":203,"o":"m 86 49 q 101 89 86 73 q 144 106 117 106 q 186 89 171 106 q 202 49 202 73 q 186 10 202 25 q 144 -5 171 -5 q 101 10 117 -5 q 86 49 86 25 m 87 675 q 103 715 87 699 q 145 732 118 732 q 188 715 172 732 q 203 675 203 699 q 188 636 203 651 q 145 621 172 621 q 103 636 118 621 q 87 675 87 651 z "},";":{"ha":271,"x_min":41,"x_max":196,"o":"m 80 675 q 95 715 80 699 q 138 732 111 732 q 180 715 165 732 q 196 675 196 699 q 180 636 196 651 q 138 621 165 621 q 95 636 111 621 q 80 675 80 651 m 89 -184 l 41 -149 q 104 22 102 -66 l 104 127 l 184 127 l 184 43 q 89 -184 184 -98 z "},"<":{"ha":710,"x_min":52,"x_max":613,"o":"m 141 444 l 613 241 l 613 155 l 52 412 l 52 478 l 613 734 l 613 649 l 141 444 z "},"=":{"ha":768,"x_min":101,"x_max":667,"o":"m 667 562 l 101 562 l 101 634 l 667 634 l 667 562 m 667 283 l 101 283 l 101 355 l 667 355 l 667 283 z "},">":{"ha":720,"x_min":84,"x_max":657,"o":"m 566 447 l 84 652 l 84 736 l 657 479 l 657 414 l 84 157 l 84 241 l 566 447 z "},"?":{"ha":631,"x_min":57,"x_max":572,"o":"m 255 274 q 277 403 256 354 q 364 518 297 452 q 451 611 431 584 q 480 672 470 639 q 491 747 491 705 q 446 880 491 831 q 320 928 401 928 q 189 882 239 928 q 138 756 139 836 l 57 756 q 132 934 58 867 q 320 1001 206 1001 q 504 933 437 1001 q 572 748 572 865 q 538 611 572 675 q 412 461 505 547 q 336 274 336 397 l 255 274 m 244 47 q 259 86 244 71 q 300 102 273 102 q 341 86 326 102 q 356 47 356 71 q 341 10 356 25 q 300 -5 326 -5 q 259 10 273 -5 q 244 47 244 25 z "},"@":{"ha":1268,"x_min":77,"x_max":1198,"o":"m 1190 348 q 1153 163 1186 248 q 1061 32 1120 78 q 925 -14 1002 -14 q 818 21 859 -14 q 763 118 777 56 q 561 -14 690 -14 q 419 68 466 -14 q 385 290 372 151 q 435 487 395 400 q 540 622 475 573 q 679 670 605 670 q 770 655 731 670 q 862 597 810 641 l 827 210 q 847 88 821 132 q 933 45 874 45 q 1068 126 1017 45 q 1126 348 1120 208 q 1022 761 1139 623 q 667 900 905 900 q 409 828 524 900 q 227 626 294 757 q 153 324 161 495 q 198 23 144 153 q 358 -176 251 -106 q 614 -246 466 -246 q 737 -231 677 -246 q 838 -193 798 -216 l 859 -247 q 751 -290 821 -273 q 612 -307 682 -307 q 320 -231 442 -307 q 137 -11 198 -155 q 85 324 77 132 q 168 658 93 513 q 373 883 243 804 q 669 963 503 963 q 962 891 842 963 q 1140 680 1082 819 q 1190 348 1198 541 m 456 194 q 494 89 464 126 q 575 52 525 52 q 760 225 701 52 l 791 575 q 684 608 745 608 q 553 548 608 608 q 472 383 498 488 q 456 194 446 277 z "},"A":{"ha":867,"x_min":20,"x_max":847,"o":"m 658 277 l 210 277 l 108 0 l 20 0 l 394 987 l 473 987 l 847 0 l 760 0 l 658 277 m 235 348 l 631 348 l 433 886 l 235 348 z "},"B":{"ha":851,"x_min":125,"x_max":774,"o":"m 125 0 l 125 987 l 416 987 q 657 922 575 987 q 739 729 739 857 q 697 596 739 652 q 583 515 656 539 q 722 430 669 496 q 774 278 774 364 q 690 74 774 147 q 455 0 606 0 l 125 0 m 208 475 l 208 71 l 458 71 q 628 125 566 71 q 691 277 691 180 q 631 421 691 368 q 465 475 571 475 l 208 475 m 208 545 l 436 545 q 598 594 541 547 q 655 731 655 641 q 596 871 655 826 q 416 916 536 916 l 208 916 l 208 545 z "},"C":{"ha":902,"x_min":89,"x_max":824,"o":"m 824 308 q 712 69 807 152 q 460 -14 618 -14 q 266 41 351 -14 q 136 197 182 96 q 89 427 90 298 l 89 555 q 135 789 89 687 q 268 946 181 890 q 467 1001 354 1001 q 717 915 625 1001 q 824 678 809 829 l 740 678 q 467 930 709 930 q 253 829 332 930 q 173 552 173 729 l 173 431 q 251 159 173 260 q 460 57 328 57 q 658 120 591 57 q 740 308 724 182 l 824 308 z "},"D":{"ha":909,"x_min":125,"x_max":823,"o":"m 125 0 l 125 987 l 401 987 q 618 932 522 987 q 769 774 715 877 q 823 539 823 671 l 823 448 q 769 214 823 316 q 618 56 715 111 q 395 0 521 0 l 125 0 m 208 916 l 208 71 l 395 71 q 646 174 551 71 q 740 454 740 277 l 740 541 q 647 813 740 711 q 402 916 554 916 l 208 916 z "},"E":{"ha":790,"x_min":125,"x_max":739,"o":"m 670 473 l 208 473 l 208 71 l 739 71 l 739 0 l 125 0 l 125 987 l 736 987 l 736 916 l 208 916 l 208 544 l 670 544 l 670 473 z "},"F":{"ha":781,"x_min":125,"x_max":736,"o":"m 669 461 l 208 461 l 208 0 l 125 0 l 125 987 l 736 987 l 736 916 l 208 916 l 208 532 l 669 532 l 669 461 z "},"G":{"ha":949,"x_min":98,"x_max":838,"o":"m 838 117 q 702 21 794 56 q 494 -14 609 -14 q 288 42 378 -14 q 149 199 198 98 q 98 433 99 301 l 98 557 q 202 882 98 763 q 481 1001 306 1001 q 726 923 633 1001 q 837 709 819 846 l 753 709 q 665 874 735 818 q 481 930 595 930 q 262 831 343 930 q 182 554 182 733 l 182 437 q 220 238 182 325 q 330 104 258 152 q 494 57 401 57 q 680 91 602 57 q 754 143 730 113 l 754 398 l 489 398 l 489 469 l 838 469 l 838 117 z "},"H":{"ha":983,"x_min":125,"x_max":857,"o":"m 857 0 l 772 0 l 772 473 l 208 473 l 208 0 l 125 0 l 125 987 l 208 987 l 208 544 l 772 544 l 772 987 l 857 987 l 857 0 z "},"I":{"ha":370,"x_min":143,"x_max":227,"o":"m 227 0 l 143 0 l 143 987 l 227 987 l 227 0 z "},"J":{"ha":764,"x_min":48,"x_max":645,"o":"m 561 987 l 645 987 l 645 294 q 564 70 645 153 q 347 -14 483 -14 q 125 62 203 -14 q 48 272 48 137 l 132 272 q 188 111 132 165 q 347 57 244 57 q 500 119 441 57 q 561 289 559 182 l 561 987 z "},"K":{"ha":876,"x_min":125,"x_max":851,"o":"m 347 490 l 208 353 l 208 0 l 125 0 l 125 987 l 208 987 l 208 455 l 714 987 l 819 987 l 406 548 l 851 0 l 749 0 l 347 490 z "},"L":{"ha":732,"x_min":125,"x_max":696,"o":"m 209 71 l 696 71 l 696 0 l 125 0 l 125 987 l 209 987 l 209 71 z "},"M":{"ha":1202,"x_min":125,"x_max":1076,"o":"m 235 987 l 600 116 l 965 987 l 1076 987 l 1076 0 l 993 0 l 993 430 l 1000 871 l 632 0 l 568 0 l 201 867 l 208 433 l 208 0 l 125 0 l 125 987 l 235 987 z "},"N":{"ha":986,"x_min":125,"x_max":860,"o":"m 860 0 l 777 0 l 209 845 l 209 0 l 125 0 l 125 987 l 209 987 l 777 142 l 777 987 l 860 987 l 860 0 z "},"O":{"ha":940,"x_min":85,"x_max":854,"o":"m 854 440 q 807 201 854 304 q 673 42 760 98 q 471 -14 585 -14 q 191 110 298 -14 q 85 444 85 234 l 85 546 q 133 785 85 681 q 268 945 180 889 q 469 1001 355 1001 q 670 946 583 1001 q 805 791 758 891 q 854 558 852 690 l 854 440 m 771 547 q 690 827 771 726 q 469 928 610 928 q 250 826 332 928 q 168 543 168 725 l 168 440 q 250 162 168 264 q 471 59 331 59 q 692 160 612 59 q 771 443 771 262 l 771 547 z "},"P":{"ha":855,"x_min":125,"x_max":793,"o":"m 208 402 l 208 0 l 125 0 l 125 987 l 461 987 q 704 909 615 987 q 793 692 793 830 q 708 478 793 553 q 459 402 622 402 l 208 402 m 208 473 l 461 473 q 646 530 583 473 q 710 691 710 588 q 647 854 710 793 q 467 916 583 915 l 208 916 l 208 473 z "},"Q":{"ha":940,"x_min":82,"x_max":852,"o":"m 852 440 q 802 194 852 299 q 660 36 752 90 l 840 -121 l 782 -172 l 581 2 q 467 -14 525 -14 q 267 42 355 -14 q 131 200 179 98 q 82 435 83 302 l 82 546 q 130 785 82 681 q 265 945 178 889 q 466 1001 353 1001 q 669 945 581 1001 q 804 786 756 890 q 852 547 852 682 l 852 440 m 768 547 q 688 827 768 726 q 466 928 607 928 q 247 826 329 928 q 165 543 165 725 l 165 440 q 247 162 165 264 q 467 59 328 59 q 688 160 608 59 q 768 442 768 261 l 768 547 z "},"R":{"ha":882,"x_min":123,"x_max":821,"o":"m 494 411 l 207 411 l 207 0 l 123 0 l 123 987 l 444 987 q 690 911 602 987 q 779 696 779 834 q 724 529 779 602 q 574 429 668 456 l 821 9 l 821 0 l 732 0 l 494 411 m 207 482 l 463 482 q 631 542 568 482 q 695 696 695 602 q 629 859 695 801 q 442 916 562 916 l 207 916 l 207 482 z "},"S":{"ha":823,"x_min":60,"x_max":768,"o":"m 684 243 q 626 373 684 325 q 415 464 568 420 q 191 557 262 507 q 91 746 91 629 q 184 930 91 859 q 422 1001 277 1001 q 598 963 521 1001 q 719 857 676 925 q 762 706 762 789 l 677 706 q 608 868 677 807 q 422 930 539 930 q 242 879 309 930 q 175 747 175 829 q 235 625 175 672 q 429 541 296 577 q 630 466 562 505 q 733 372 699 427 q 768 244 768 318 q 674 57 768 127 q 429 -14 581 -14 q 237 24 324 -14 q 105 128 150 61 q 60 282 60 195 l 143 282 q 221 117 143 178 q 429 57 299 57 q 614 108 544 57 q 684 243 684 159 z "},"T":{"ha":829,"x_min":35,"x_max":795,"o":"m 795 916 l 456 916 l 456 0 l 373 0 l 373 916 l 35 916 l 35 987 l 795 987 l 795 916 z "},"U":{"ha":913,"x_min":110,"x_max":805,"o":"m 805 987 l 805 313 q 761 140 804 214 q 638 26 718 66 q 457 -14 559 -14 q 207 72 301 -14 q 110 307 113 157 l 110 987 l 193 987 l 193 319 q 264 126 193 195 q 457 57 335 57 q 650 126 579 57 q 721 319 721 195 l 721 987 l 805 987 z "},"V":{"ha":857,"x_min":21,"x_max":836,"o":"m 422 122 l 428 101 l 434 122 l 745 987 l 836 987 l 469 0 l 389 0 l 21 987 l 112 987 l 422 122 z "},"W":{"ha":1245,"x_min":41,"x_max":1209,"o":"m 307 267 l 338 113 l 375 260 l 589 987 l 665 987 l 876 260 l 913 112 l 945 267 l 1124 987 l 1209 987 l 956 0 l 876 0 l 652 772 l 627 870 l 603 772 l 374 0 l 294 0 l 41 987 l 127 987 l 307 267 z "},"X":{"ha":850,"x_min":37,"x_max":813,"o":"m 425 570 l 703 987 l 803 987 l 476 500 l 813 0 l 713 0 l 425 431 l 136 0 l 37 0 l 375 500 l 47 987 l 147 987 l 425 570 z "},"Y":{"ha":831,"x_min":16,"x_max":812,"o":"m 414 449 l 716 987 l 812 987 l 456 372 l 456 0 l 372 0 l 372 372 l 16 987 l 115 987 l 414 449 z "},"Z":{"ha":831,"x_min":61,"x_max":772,"o":"m 162 71 l 772 71 l 772 0 l 61 0 l 61 63 l 647 916 l 79 916 l 79 987 l 750 987 l 750 928 l 162 71 z "},"[":{"ha":333,"x_min":111,"x_max":334,"o":"m 334 1059 l 192 1059 l 192 -142 l 334 -142 l 334 -212 l 111 -212 l 111 1128 l 334 1128 l 334 1059 z "},"\\":{"ha":547,"x_min":33,"x_max":524,"o":"m 33 987 l 112 987 l 524 -85 l 445 -85 l 33 987 z "},"]":{"ha":333,"x_min":0,"x_max":224,"o":"m 0 1128 l 224 1128 l 224 -212 l 0 -212 l 0 -142 l 143 -142 l 143 1059 l 0 1059 l 0 1128 z "},"^":{"ha":578,"x_min":52,"x_max":518,"o":"m 286 880 l 131 494 l 52 494 l 255 987 l 316 987 l 518 494 l 439 494 l 286 880 z "},"_":{"ha":600,"x_min":1,"x_max":598,"o":"m 598 -68 l 1 -68 l 1 0 l 598 0 l 598 -68 z "},"`":{"ha":397,"x_min":70,"x_max":297,"o":"m 297 852 l 223 852 l 70 1042 l 168 1042 l 297 852 z "},"a":{"ha":744,"x_min":68,"x_max":656,"o":"m 569 0 q 553 102 557 35 q 445 17 511 47 q 304 -14 378 -14 q 133 45 199 -14 q 68 195 68 104 q 157 364 68 302 q 406 427 246 427 l 553 427 l 553 510 q 504 634 553 589 q 363 679 456 679 q 222 635 278 679 q 167 531 167 592 l 85 532 q 167 683 85 619 q 367 747 248 747 q 561 686 490 747 q 633 515 631 625 l 633 168 q 656 8 633 61 l 656 0 l 569 0 m 314 58 q 459 98 395 58 q 553 203 524 137 l 553 364 l 408 364 q 218 320 286 363 q 149 201 149 277 q 195 99 149 140 q 314 58 241 58 z "},"b":{"ha":770,"x_min":105,"x_max":696,"o":"m 696 359 q 621 87 696 188 q 416 -14 545 -14 q 184 100 263 -14 l 181 0 l 105 0 l 105 1042 l 186 1042 l 186 627 q 415 747 263 747 q 621 648 545 747 q 696 372 696 549 l 696 359 m 615 374 q 559 598 615 519 q 400 677 503 677 q 268 638 322 677 q 186 526 214 600 l 186 195 q 401 57 247 57 q 558 136 502 57 q 615 374 615 216 z "},"c":{"ha":715,"x_min":64,"x_max":659,"o":"m 377 55 q 519 103 462 55 q 581 227 576 151 l 659 227 q 617 104 656 159 q 514 18 578 49 q 377 -14 450 -14 q 148 87 233 -14 q 64 357 64 187 l 64 381 q 102 573 64 490 q 211 702 140 656 q 376 747 281 747 q 575 675 497 747 q 659 486 654 604 l 581 486 q 519 625 576 572 q 376 678 463 678 q 206 599 267 678 q 145 376 145 519 l 145 353 q 206 134 145 212 q 377 55 267 55 z "},"d":{"ha":772,"x_min":73,"x_max":664,"o":"m 73 374 q 150 646 73 545 q 357 747 226 747 q 583 630 505 747 l 583 1042 l 664 1042 l 664 0 l 588 0 l 585 98 q 355 -14 507 -14 q 151 89 229 -14 q 73 364 73 191 l 73 374 m 155 359 q 212 138 155 219 q 370 57 268 57 q 583 189 520 57 l 583 534 q 372 677 520 677 q 212 596 269 677 q 155 359 155 516 z "},"e":{"ha":718,"x_min":61,"x_max":665,"o":"m 390 -14 q 221 33 296 -14 q 103 161 145 79 q 61 346 61 243 l 61 375 q 102 566 61 481 q 216 699 143 650 q 375 747 290 747 q 587 656 509 747 q 665 407 665 565 l 665 361 l 142 361 l 142 346 q 213 138 142 221 q 393 55 285 55 q 508 79 458 55 q 599 155 558 102 l 650 116 q 390 -14 560 -14 m 375 678 q 221 611 283 678 q 144 431 158 544 l 585 431 l 585 439 q 524 612 581 545 q 375 678 467 678 z "},"f":{"ha":460,"x_min":43,"x_max":467,"o":"m 164 0 l 164 667 l 43 667 l 43 734 l 164 734 l 164 823 q 221 996 164 935 q 381 1056 279 1056 q 467 1044 427 1056 l 461 977 q 387 985 427 985 q 283 943 320 985 q 245 825 245 901 l 245 734 l 420 734 l 420 667 l 245 667 l 245 0 l 164 0 z "},"g":{"ha":770,"x_min":73,"x_max":665,"o":"m 73 374 q 150 647 73 546 q 357 747 226 747 q 585 628 507 747 l 589 734 l 665 734 l 665 15 q 585 -210 665 -127 q 370 -292 506 -292 q 224 -258 294 -292 q 115 -167 155 -224 l 160 -118 q 365 -224 246 -224 q 524 -164 467 -224 q 583 3 581 -104 l 583 95 q 355 -14 505 -14 q 151 88 228 -14 q 73 363 73 190 l 73 374 m 155 359 q 212 138 155 219 q 370 57 268 57 q 583 191 520 57 l 583 532 q 500 640 554 603 q 372 677 447 677 q 212 596 269 677 q 155 359 155 516 z "},"h":{"ha":762,"x_min":106,"x_max":659,"o":"m 186 610 q 289 711 227 675 q 425 747 351 747 q 601 681 543 747 q 659 481 659 614 l 659 0 l 578 0 l 578 482 q 537 629 578 581 q 406 677 496 677 q 272 630 330 677 q 186 503 214 583 l 186 0 l 106 0 l 106 1042 l 186 1042 l 186 610 z "},"i":{"ha":311,"x_min":101,"x_max":213,"o":"m 197 0 l 115 0 l 115 734 l 197 734 l 197 0 m 101 946 q 116 985 101 969 q 157 1001 131 1001 q 198 985 182 1001 q 213 946 213 969 q 198 907 213 923 q 157 892 182 892 q 116 907 131 892 q 101 946 101 923 z "},"j":{"ha":317,"x_min":-71,"x_max":210,"o":"m 193 734 l 193 -87 q 144 -243 193 -189 q 1 -296 96 -296 q -71 -283 -36 -296 l -69 -216 q -8 -225 -39 -225 q 113 -86 113 -225 l 113 734 l 193 734 m 153 1001 q 195 985 180 1001 q 210 946 210 969 q 195 907 210 923 q 153 892 180 892 q 113 907 127 892 q 98 946 98 923 q 113 985 98 969 q 153 1001 127 1001 z "},"k":{"ha":680,"x_min":106,"x_max":674,"o":"m 280 370 l 187 280 l 187 0 l 106 0 l 106 1042 l 187 1042 l 187 375 l 264 458 l 545 734 l 647 734 l 336 425 l 674 0 l 577 0 l 280 370 z "},"l":{"ha":311,"x_min":115,"x_max":197,"o":"m 197 0 l 115 0 l 115 1042 l 197 1042 l 197 0 z "},"m":{"ha":1231,"x_min":102,"x_max":1131,"o":"m 180 734 l 182 614 q 284 714 223 681 q 420 747 345 747 q 640 605 593 747 q 745 710 680 673 q 890 747 811 747 q 1131 490 1126 747 l 1131 0 l 1050 0 l 1050 484 q 1007 629 1049 582 q 871 677 966 677 q 724 620 784 675 q 656 486 663 565 l 656 0 l 575 0 l 575 490 q 531 630 574 584 q 396 677 487 677 q 264 633 319 677 q 183 503 210 589 l 183 0 l 102 0 l 102 734 l 180 734 z "},"n":{"ha":763,"x_min":106,"x_max":659,"o":"m 183 734 l 186 608 q 289 712 227 676 q 425 747 351 747 q 601 681 543 747 q 659 481 659 614 l 659 0 l 578 0 l 578 482 q 537 629 578 581 q 406 677 496 677 q 272 630 330 677 q 186 503 214 583 l 186 0 l 106 0 l 106 734 l 183 734 z "},"o":{"ha":778,"x_min":61,"x_max":716,"o":"m 61 378 q 102 568 61 484 q 218 700 143 653 q 388 747 293 747 q 625 645 534 747 q 716 372 716 542 l 716 355 q 675 164 716 249 q 559 33 634 79 q 389 -14 485 -14 q 152 89 243 -14 q 61 361 61 192 l 61 378 m 142 355 q 211 139 142 224 q 389 55 279 55 q 567 139 499 55 q 635 362 635 224 l 635 378 q 604 532 635 462 q 517 640 573 602 q 388 678 460 678 q 211 593 279 678 q 142 370 142 508 l 142 355 z "},"p":{"ha":770,"x_min":105,"x_max":696,"o":"m 696 359 q 620 87 696 188 q 416 -14 544 -14 q 186 92 266 -14 l 186 -282 l 105 -282 l 105 734 l 180 734 l 184 630 q 414 747 264 747 q 621 648 546 747 q 696 371 696 548 l 696 359 m 614 374 q 557 595 614 514 q 396 677 499 677 q 268 641 321 677 q 186 536 214 605 l 186 184 q 269 88 215 121 q 397 55 323 55 q 557 137 500 55 q 614 374 614 218 z "},"q":{"ha":774,"x_min":73,"x_max":664,"o":"m 73 374 q 150 647 73 546 q 358 747 226 747 q 584 634 507 747 l 588 734 l 664 734 l 664 -282 l 583 -282 l 583 91 q 357 -14 503 -14 q 151 88 228 -14 q 73 363 73 190 l 73 374 m 155 359 q 213 136 155 217 q 372 55 270 55 q 583 182 517 55 l 583 541 q 498 643 552 607 q 373 678 444 678 q 213 597 271 678 q 155 359 155 516 z "},"r":{"ha":467,"x_min":106,"x_max":447,"o":"m 445 665 q 390 669 419 669 q 261 627 314 669 q 186 504 209 585 l 186 0 l 106 0 l 106 734 l 185 734 l 186 617 q 393 747 251 747 q 447 739 427 747 l 445 665 z "},"s":{"ha":703,"x_min":68,"x_max":627,"o":"m 545 186 q 497 283 545 247 q 351 341 448 320 q 199 388 253 361 q 119 454 145 415 q 93 547 93 492 q 165 691 93 634 q 351 747 238 747 q 548 687 474 747 q 623 528 623 626 l 541 528 q 487 635 541 593 q 351 678 433 678 q 223 643 271 678 q 174 550 174 607 q 215 465 174 495 q 362 410 255 435 q 522 356 469 385 q 601 288 575 328 q 627 191 627 248 q 552 42 627 98 q 356 -14 477 -14 q 148 48 228 -14 q 68 205 68 111 l 150 205 q 210 95 155 134 q 356 55 265 55 q 493 92 441 55 q 545 186 545 130 z "},"t":{"ha":446,"x_min":16,"x_max":397,"o":"m 232 922 l 232 734 l 384 734 l 384 667 l 232 667 l 232 178 q 254 87 232 117 q 328 58 276 58 q 393 64 348 58 l 397 -2 q 310 -14 365 -14 q 189 35 227 -14 q 151 178 151 83 l 151 667 l 16 667 l 16 734 l 151 734 l 151 922 l 232 922 z "},"u":{"ha":763,"x_min":103,"x_max":658,"o":"m 578 93 q 344 -14 505 -14 q 165 55 227 -14 q 103 256 104 123 l 103 734 l 184 734 l 184 267 q 353 57 184 57 q 576 203 530 57 l 576 734 l 658 734 l 658 0 l 579 0 l 578 93 z "},"v":{"ha":668,"x_min":26,"x_max":641,"o":"m 334 112 l 557 734 l 641 734 l 367 0 l 301 0 l 26 734 l 109 734 l 334 112 z "},"w":{"ha":1047,"x_min":43,"x_max":999,"o":"m 281 169 l 294 106 l 310 172 l 486 734 l 555 734 l 730 177 l 749 100 l 764 171 l 915 734 l 999 734 l 785 0 l 716 0 l 528 582 l 519 622 l 510 581 l 325 0 l 256 0 l 43 734 l 126 734 l 281 169 z "},"x":{"ha":675,"x_min":33,"x_max":642,"o":"m 336 436 l 534 734 l 631 734 l 382 374 l 642 0 l 546 0 l 337 311 l 128 0 l 33 0 l 292 374 l 43 734 l 138 734 l 336 436 z "},"y":{"ha":660,"x_min":22,"x_max":640,"o":"m 338 117 l 553 734 l 640 734 l 327 -125 l 311 -163 q 124 -296 250 -296 q 62 -287 95 -296 l 61 -220 l 103 -224 q 200 -194 163 -224 q 262 -93 237 -165 l 298 6 l 22 734 l 111 734 l 338 117 z "},"z":{"ha":675,"x_min":59,"x_max":636,"o":"m 159 68 l 636 68 l 636 0 l 59 0 l 59 60 l 504 664 l 73 664 l 73 734 l 606 734 l 606 673 l 159 68 z "},"{":{"ha":458,"x_min":46,"x_max":452,"o":"m 432 -274 q 260 -163 318 -240 q 203 40 203 -87 l 203 190 q 46 368 203 368 l 46 439 q 203 616 203 439 l 203 771 q 260 972 203 895 q 432 1083 317 1048 l 450 1029 q 284 764 284 977 l 284 620 q 159 404 284 453 q 284 188 284 351 l 284 33 q 452 -220 287 -165 l 432 -274 z "},"|":{"ha":307,"x_min":121,"x_max":189,"o":"m 189 -183 l 121 -183 l 121 987 l 189 987 l 189 -183 z "},"}":{"ha":458,"x_min":6,"x_max":412,"o":"m 6 -220 q 174 33 171 -165 l 174 185 q 304 403 174 357 q 174 619 174 449 l 174 764 q 8 1029 174 978 l 26 1083 q 198 971 142 1048 q 255 767 255 893 l 255 616 q 412 439 255 439 l 412 368 q 255 190 255 368 l 255 40 q 197 -163 255 -87 q 26 -274 140 -240 l 6 -220 z "},"~":{"ha":951,"x_min":98,"x_max":850,"o":"m 850 518 q 794 352 850 417 q 650 287 737 287 q 558 306 601 287 q 454 379 516 324 q 363 447 393 433 q 299 461 333 461 q 205 421 239 461 q 172 305 172 381 l 98 304 q 153 470 98 406 q 299 534 208 534 q 394 513 349 534 q 502 436 439 492 q 580 376 547 393 q 650 359 612 359 q 745 401 709 359 q 780 518 780 444 l 850 518 z "},"¡":{"ha":307,"x_min":95,"x_max":207,"o":"m 118 468 l 193 468 l 198 -243 l 114 -243 l 118 468 m 207 693 q 192 654 207 670 q 151 639 177 639 q 110 654 125 639 q 95 693 95 670 q 110 732 95 716 q 151 747 125 747 q 192 732 177 747 q 207 693 207 716 z "},"¢":{"ha":756,"x_min":81,"x_max":676,"o":"m 394 55 q 535 102 477 55 q 598 227 592 149 l 676 227 q 601 66 671 132 q 431 -12 532 -1 l 431 -166 l 350 -166 l 350 -11 q 153 102 224 5 q 81 357 81 199 l 81 381 q 152 630 81 532 q 350 745 224 729 l 350 894 l 431 894 l 431 745 q 604 663 536 734 q 676 486 672 592 l 598 486 q 536 625 593 572 q 393 678 479 678 q 223 599 283 678 q 162 376 162 519 l 162 353 q 223 134 162 212 q 394 55 283 55 z "},"£":{"ha":793,"x_min":63,"x_max":742,"o":"m 274 437 l 280 250 q 237 71 281 132 l 742 71 l 742 0 l 66 0 l 66 71 l 132 71 q 184 143 167 79 q 197 249 198 193 l 191 437 l 63 437 l 63 508 l 188 508 l 182 705 q 257 921 182 840 q 457 1001 332 1001 q 652 929 581 1001 q 724 738 724 858 l 640 738 q 589 880 640 829 q 451 930 538 930 q 316 870 366 930 q 266 705 266 810 l 272 508 l 505 508 l 505 437 l 274 437 z "},"¤":{"ha":1004,"x_min":74,"x_max":932,"o":"m 767 90 q 646 14 714 41 q 502 -14 578 -14 q 237 90 349 -14 l 132 -18 l 74 41 l 182 150 q 98 412 98 264 q 188 682 98 566 l 74 798 l 132 857 l 245 742 q 502 837 357 837 q 759 741 647 837 l 874 858 l 932 798 l 817 680 q 905 412 905 564 q 822 152 905 267 l 932 41 l 874 -18 l 767 90 m 174 412 q 218 237 174 319 q 338 109 262 156 q 502 62 415 62 q 665 109 589 62 q 785 238 741 157 q 828 412 828 319 q 784 588 828 507 q 664 715 739 669 q 502 761 589 761 q 339 715 415 761 q 219 588 263 669 q 174 412 174 507 z "},"¥":{"ha":716,"x_min":16,"x_max":699,"o":"m 357 496 l 605 987 l 699 987 l 428 478 l 640 478 l 640 418 l 397 418 l 397 279 l 640 279 l 640 220 l 397 220 l 397 0 l 314 0 l 314 220 l 74 220 l 74 279 l 314 279 l 314 418 l 74 418 l 74 478 l 286 478 l 16 987 l 111 987 l 357 496 z "},"¦":{"ha":301,"x_min":108,"x_max":189,"o":"m 108 -183 l 108 340 l 189 340 l 189 -183 l 108 -183 m 189 473 l 108 473 l 108 987 l 189 987 l 189 473 z "},"§":{"ha":840,"x_min":69,"x_max":759,"o":"m 759 292 q 717 177 759 224 q 602 108 675 130 q 696 28 663 75 q 729 -94 729 -20 q 644 -271 729 -205 q 411 -336 558 -336 q 272 -317 337 -336 q 160 -259 206 -298 q 69 -43 69 -182 l 151 -42 q 221 -207 151 -148 q 411 -267 291 -267 q 583 -219 519 -267 q 647 -96 647 -172 q 624 -12 647 -43 q 546 47 600 20 q 372 106 492 73 q 193 173 252 138 q 103 257 134 208 q 73 374 73 305 q 113 489 73 441 q 224 559 153 537 q 135 639 166 591 q 104 760 104 686 q 191 935 104 869 q 423 1001 279 1001 q 660 924 575 1001 q 744 709 744 848 l 663 709 q 597 870 663 808 q 423 932 532 932 q 248 885 311 932 q 185 761 185 839 q 206 675 185 707 q 279 618 227 644 q 438 562 330 592 q 635 492 571 527 q 729 409 699 457 q 759 292 759 361 m 308 523 q 195 475 235 514 q 155 375 155 435 q 179 286 155 319 q 257 228 203 254 q 450 164 312 202 l 512 145 q 633 193 588 154 q 677 290 677 232 q 632 397 677 357 q 469 475 587 437 l 308 523 z "},"¨":{"ha":597,"x_min":93,"x_max":502,"o":"m 93 947 q 108 986 93 970 q 149 1002 123 1002 q 190 986 174 1002 q 205 947 205 970 q 190 909 205 924 q 149 893 174 893 q 108 909 123 893 q 93 947 93 924 m 390 946 q 405 985 390 969 q 446 1001 420 1001 q 487 985 471 1001 q 502 946 502 969 q 487 908 502 924 q 446 892 471 892 q 405 908 420 892 q 390 946 390 924 z "},"©":{"ha":1110,"x_min":73,"x_max":1035,"o":"m 760 412 q 705 254 760 309 q 547 199 649 199 q 384 271 446 199 q 321 465 321 342 l 321 526 q 384 716 321 644 q 547 789 446 789 q 705 734 648 789 q 761 576 761 680 l 694 576 q 547 728 694 728 q 432 673 475 728 q 389 523 389 618 l 389 461 q 431 315 389 370 q 547 260 474 260 q 656 296 619 260 q 693 412 693 332 l 760 412 m 130 494 q 185 271 130 375 q 340 105 241 166 q 554 44 440 44 q 766 104 667 44 q 921 269 864 165 q 977 494 977 373 q 921 719 977 615 q 766 882 865 822 q 554 942 667 942 q 338 880 438 942 q 184 715 239 819 q 130 494 130 612 m 73 494 q 136 749 73 631 q 312 933 199 866 q 554 1001 424 1001 q 796 933 684 1001 q 971 749 908 866 q 1035 494 1035 631 q 974 244 1035 361 q 801 57 913 127 q 554 -14 688 -14 q 308 56 420 -14 q 134 243 196 126 q 73 494 73 359 z "},"ª":{"ha":614,"x_min":106,"x_max":515,"o":"m 440 478 q 426 542 430 507 q 275 469 367 469 q 151 508 196 469 q 106 616 106 548 q 163 732 106 690 q 330 773 220 773 l 424 773 l 424 814 q 397 904 424 872 q 315 936 370 936 q 219 912 254 936 q 184 839 184 888 l 111 843 q 168 957 111 912 q 315 1001 224 1001 q 448 952 399 1001 q 498 813 498 904 l 498 600 q 515 478 498 537 l 440 478 m 289 533 q 364 553 325 533 q 424 604 403 574 l 424 718 l 336 718 q 180 618 180 718 q 289 533 180 533 z "},"«":{"ha":633,"x_min":83,"x_max":564,"o":"m 168 363 l 355 100 l 283 100 l 83 357 l 83 370 l 283 627 l 355 627 l 168 363 m 377 363 l 564 100 l 493 100 l 293 357 l 293 370 l 493 627 l 564 627 l 377 363 z "},"¬":{"ha":758,"x_min":84,"x_max":635,"o":"m 635 262 l 553 262 l 553 454 l 84 454 l 84 526 l 635 526 l 635 262 z "},"®":{"ha":1114,"x_min":69,"x_max":1032,"o":"m 69 494 q 133 749 69 631 q 308 933 196 866 q 551 1001 420 1001 q 793 933 681 1001 q 969 749 905 866 q 1032 494 1032 631 q 970 243 1032 359 q 797 56 909 126 q 551 -14 684 -14 q 305 56 417 -14 q 131 243 193 126 q 69 494 69 359 m 127 494 q 183 269 127 373 q 339 104 240 164 q 551 44 437 44 q 763 104 664 44 q 918 269 862 164 q 974 494 974 374 q 919 717 974 614 q 765 881 864 820 q 551 942 667 942 q 338 882 437 942 q 183 719 239 822 q 127 494 127 615 m 441 452 l 441 218 l 374 218 l 374 787 l 549 787 q 703 745 649 787 q 756 618 756 703 q 661 485 756 528 q 728 430 709 467 q 747 342 747 393 q 750 267 747 290 q 759 229 753 244 l 759 218 l 690 218 q 680 341 680 242 q 655 427 680 401 q 568 452 629 452 l 441 452 m 441 513 l 564 513 q 654 542 618 513 q 690 617 690 570 q 660 700 690 675 q 559 726 631 724 l 441 726 l 441 513 z "},"¯":{"ha":593,"x_min":93,"x_max":513,"o":"m 513 911 l 93 911 l 93 977 l 513 977 l 513 911 z "},"°":{"ha":525,"x_min":97,"x_max":427,"o":"m 427 831 q 379 713 427 761 q 263 665 331 665 q 146 713 195 665 q 97 831 97 762 q 146 951 97 901 q 263 1001 196 1001 q 379 951 330 1001 q 427 831 427 901 m 158 831 q 188 756 158 786 q 263 726 218 726 q 337 756 308 726 q 366 831 366 786 q 337 909 366 878 q 263 939 308 939 q 189 909 219 939 q 158 831 158 878 z "},"±":{"ha":736,"x_min":57,"x_max":678,"o":"m 413 562 l 678 562 l 678 493 l 413 493 l 413 196 l 338 196 l 338 493 l 57 493 l 57 562 l 338 562 l 338 859 l 413 859 l 413 562 m 653 0 l 87 0 l 87 68 l 653 68 l 653 0 z "},"²":{"ha":502,"x_min":52,"x_max":452,"o":"m 452 451 l 65 451 l 65 502 l 282 715 q 354 839 354 789 q 327 908 354 882 q 245 934 299 934 q 155 904 186 934 q 123 824 123 873 l 52 824 q 105 945 52 897 q 244 994 159 994 q 378 951 330 994 q 426 840 426 909 q 346 689 426 772 l 309 652 l 155 510 l 452 510 l 452 451 z "},"³":{"ha":502,"x_min":48,"x_max":441,"o":"m 181 751 l 239 751 q 327 777 294 752 q 359 842 359 801 q 330 909 359 884 q 245 934 300 934 q 161 909 194 934 q 129 844 129 884 l 58 844 q 111 951 58 909 q 245 994 164 994 q 381 953 332 994 q 431 843 431 912 q 405 773 431 805 q 332 725 379 741 q 441 597 441 696 q 388 486 441 528 q 246 444 334 444 q 103 487 159 444 q 48 600 48 530 l 120 600 q 156 530 120 557 q 248 503 191 503 q 339 528 307 503 q 370 599 370 554 q 231 695 370 695 l 181 695 l 181 751 z "},"´":{"ha":391,"x_min":84,"x_max":312,"o":"m 214 1042 l 312 1042 l 155 852 l 84 852 l 214 1042 z "},"µ":{"ha":773,"x_min":110,"x_max":664,"o":"m 191 734 l 191 302 q 233 118 191 180 q 369 55 276 55 q 511 94 458 55 q 583 212 563 133 l 583 734 l 664 734 l 664 0 l 590 0 l 585 104 q 374 -14 519 -14 q 191 71 250 -14 l 191 -282 l 110 -282 l 110 734 l 191 734 z "},"¶":{"ha":660,"x_min":56,"x_max":543,"o":"m 462 0 l 462 353 l 389 353 q 212 392 287 353 q 96 504 136 431 q 56 670 56 576 q 146 901 56 814 q 391 987 237 987 l 543 987 l 543 0 l 462 0 z "},"·":{"ha":341,"x_min":111,"x_max":226,"o":"m 111 486 q 125 526 111 510 q 168 543 140 543 q 210 526 195 543 q 226 486 226 510 q 210 447 226 463 q 168 431 195 431 q 125 447 140 431 q 111 486 111 463 z "},"¸":{"ha":338,"x_min":66,"x_max":271,"o":"m 167 0 l 159 -43 q 271 -159 271 -58 q 217 -258 271 -222 q 71 -295 163 -295 l 66 -242 q 165 -220 127 -242 q 203 -161 203 -198 q 174 -106 203 -121 q 84 -86 144 -92 l 104 0 l 167 0 z "},"¹":{"ha":502,"x_min":85,"x_max":315,"o":"m 315 451 l 243 451 l 243 901 l 85 853 l 85 914 l 305 987 l 315 987 l 315 451 z "},"º":{"ha":625,"x_min":92,"x_max":530,"o":"m 92 768 q 152 936 92 871 q 311 1001 212 1001 q 470 936 410 1001 q 530 764 530 871 l 530 701 q 471 532 530 597 q 312 468 411 468 q 152 532 212 468 q 92 704 92 596 l 92 768 m 165 701 q 203 578 165 623 q 312 532 241 532 q 418 577 379 532 q 457 703 457 622 l 457 768 q 418 891 457 846 q 311 936 378 936 q 204 890 243 936 q 165 764 165 844 l 165 701 z "},"»":{"ha":629,"x_min":78,"x_max":566,"o":"m 150 640 l 350 380 l 350 367 l 150 110 l 78 110 l 265 373 l 78 640 l 150 640 m 366 640 l 566 380 l 566 367 l 366 110 l 294 110 l 481 373 l 294 640 l 366 640 z "},"¼":{"ha":1006,"x_min":78,"x_max":949,"o":"m 307 450 l 235 450 l 235 900 l 78 852 l 78 913 l 298 986 l 307 986 l 307 450 m 281 87 l 231 120 l 713 892 l 763 859 l 281 87 m 863 186 l 949 186 l 949 127 l 863 127 l 863 0 l 791 0 l 791 127 l 521 127 l 518 172 l 787 535 l 863 535 l 863 186 m 595 186 l 791 186 l 791 447 l 770 413 l 595 186 z "},"½":{"ha":1050,"x_min":68,"x_max":974,"o":"m 251 87 l 201 120 l 683 892 l 733 859 l 251 87 m 297 450 l 225 450 l 225 900 l 68 852 l 68 913 l 288 986 l 297 986 l 297 450 m 974 0 l 587 0 l 587 51 l 804 264 q 876 388 876 338 q 848 457 876 431 q 767 483 821 483 q 676 453 708 483 q 644 373 644 422 l 573 373 q 627 494 573 446 q 766 543 680 543 q 899 500 851 543 q 947 389 947 458 q 867 238 947 321 l 830 201 l 677 59 l 974 59 l 974 0 z "},"¾":{"ha":1078,"x_min":80,"x_max":1027,"o":"m 378 87 l 328 120 l 810 892 l 861 859 l 378 87 m 941 186 l 1027 186 l 1027 127 l 941 127 l 941 0 l 869 0 l 869 127 l 599 127 l 596 172 l 865 535 l 941 535 l 941 186 m 673 186 l 869 186 l 869 447 l 848 413 l 673 186 m 213 751 l 271 751 q 358 777 326 752 q 391 842 391 801 q 361 909 391 884 q 277 934 332 934 q 193 909 226 934 q 161 844 161 884 l 90 844 q 143 951 90 909 q 277 994 196 994 q 413 953 363 994 q 463 843 463 912 q 437 773 463 805 q 363 725 411 741 q 473 597 473 696 q 420 486 473 528 q 278 444 366 444 q 135 487 191 444 q 80 600 80 530 l 152 600 q 188 530 152 557 q 280 503 223 503 q 371 528 339 503 q 402 599 402 554 q 262 695 402 695 l 213 695 l 213 751 z "},"¿":{"ha":637,"x_min":60,"x_max":578,"o":"m 374 466 q 355 342 372 382 q 275 239 338 302 q 195 155 211 175 q 140 -5 140 83 q 186 -140 140 -93 q 318 -188 231 -188 q 447 -140 399 -188 q 496 -14 495 -93 l 578 -14 q 505 -193 576 -126 q 318 -260 434 -260 q 129 -192 197 -260 q 60 -7 60 -124 q 96 137 60 68 q 229 297 132 205 q 291 419 286 345 l 292 466 l 374 466 m 385 693 q 370 654 385 670 q 329 638 355 638 q 288 654 303 638 q 273 693 273 670 q 288 731 273 715 q 329 747 303 747 q 370 731 355 747 q 385 693 385 715 z "},"Æ":{"ha":1265,"x_min":12,"x_max":1236,"o":"m 1236 0 l 682 0 l 671 264 l 267 264 l 111 0 l 12 0 l 609 987 l 1195 987 l 1195 918 l 724 918 l 740 549 l 1139 549 l 1139 479 l 743 479 l 760 68 l 1236 68 l 1236 0 m 312 340 l 668 340 l 644 903 l 312 340 z "},"×":{"ha":727,"x_min":63,"x_max":655,"o":"m 63 121 l 306 369 l 73 606 l 127 661 l 359 423 l 591 661 l 645 606 l 412 369 l 655 121 l 602 68 l 359 315 l 117 68 l 63 121 z "},"Ø":{"ha":940,"x_min":85,"x_max":864,"o":"m 854 440 q 807 201 854 304 q 673 42 760 98 q 471 -14 585 -14 q 254 52 345 -14 l 186 -56 l 115 -56 l 208 91 q 85 446 85 216 l 85 546 q 133 785 85 681 q 268 945 180 889 q 469 1001 355 1001 q 722 906 621 1001 l 794 1021 l 864 1021 l 763 860 q 854 547 854 738 l 854 440 m 168 440 q 251 159 168 263 l 680 839 q 469 928 599 928 q 250 826 332 928 q 168 543 168 725 l 168 440 m 771 547 q 717 787 771 690 l 294 116 q 471 59 367 59 q 692 160 612 59 q 771 443 771 262 l 771 547 z "},"Þ":{"ha":823,"x_min":124,"x_max":743,"o":"m 205 987 l 205 781 l 426 781 q 595 747 523 781 q 705 648 667 712 q 743 500 743 584 q 661 299 743 375 q 435 220 578 222 l 205 220 l 205 0 l 124 0 l 124 987 l 205 987 m 205 713 l 205 288 l 425 288 q 597 346 532 288 q 662 499 662 404 q 600 652 662 594 q 435 713 538 710 l 205 713 z "},"ß":{"ha":814,"x_min":102,"x_max":743,"o":"m 184 0 l 102 0 l 102 764 q 167 974 102 900 q 347 1047 232 1047 q 516 990 451 1047 q 581 839 581 932 q 571 767 581 800 q 538 691 562 734 q 506 619 514 647 q 497 559 497 591 q 525 486 497 521 q 618 402 553 450 q 713 308 683 354 q 743 208 743 261 q 671 47 743 109 q 488 -14 600 -14 q 370 3 431 -14 q 281 41 308 19 l 304 109 q 381 72 329 90 q 479 54 433 54 q 612 98 562 54 q 662 208 662 141 q 632 287 662 249 q 540 371 602 326 q 447 462 478 416 q 416 560 416 508 q 458 701 416 625 q 501 834 501 777 q 458 938 501 897 q 354 978 416 978 q 184 770 186 978 l 184 0 z "},"æ":{"ha":1175,"x_min":58,"x_max":1124,"o":"m 858 -14 q 696 23 764 -14 q 588 126 629 60 q 470 23 547 60 q 298 -14 393 -14 q 121 44 184 -14 q 58 199 58 101 q 133 366 58 305 q 347 429 208 427 l 530 429 l 530 488 q 487 628 530 578 q 358 678 444 678 q 214 634 270 678 q 157 519 157 590 l 77 528 q 156 686 77 625 q 358 747 235 747 q 503 711 443 747 q 590 603 563 675 q 695 709 631 671 q 838 747 759 747 q 1047 666 970 747 q 1124 437 1123 584 l 1124 365 l 611 365 l 611 345 q 676 132 611 209 q 858 55 741 55 q 1078 135 983 55 l 1109 76 q 858 -14 1011 -14 m 311 54 q 436 85 372 54 q 530 160 499 117 l 530 363 l 356 363 q 205 322 263 363 q 140 210 146 281 l 140 196 q 184 92 140 130 q 311 54 229 54 m 838 678 q 687 612 748 678 q 613 431 626 545 l 1044 431 l 1044 452 q 989 617 1044 557 q 838 678 935 678 z "},"ð":{"ha":808,"x_min":101,"x_max":715,"o":"m 550 884 q 715 437 711 714 l 715 363 q 677 169 715 255 q 571 34 640 82 q 417 -14 503 -14 q 257 28 329 -14 q 143 147 185 70 q 101 316 101 224 q 182 563 101 471 q 398 654 263 654 q 525 628 466 654 q 623 557 583 602 q 481 841 595 727 l 328 747 l 294 796 l 433 883 q 201 1000 340 955 l 227 1070 q 505 926 391 1021 l 636 1008 l 671 959 l 550 884 m 634 424 l 633 463 q 547 551 606 519 q 413 584 488 584 q 243 513 304 584 q 182 316 182 441 q 213 185 182 246 q 297 91 243 125 q 420 56 351 56 q 575 141 515 56 q 634 368 634 225 l 634 424 z "},"÷":{"ha":789,"x_min":49,"x_max":726,"o":"m 726 437 l 49 437 l 49 515 l 726 515 l 726 437 m 336 738 q 351 778 336 762 q 393 794 366 794 q 435 778 420 794 q 451 738 451 762 q 435 698 451 714 q 393 682 420 682 q 351 698 366 682 q 336 738 336 714 m 336 197 q 351 237 336 221 q 393 254 366 254 q 435 237 420 254 q 451 197 451 221 q 435 158 451 174 q 393 142 420 142 q 351 158 366 142 q 336 197 336 174 z "},"ø":{"ha":773,"x_min":60,"x_max":715,"o":"m 60 378 q 101 568 60 484 q 217 700 142 653 q 387 747 292 747 q 532 715 465 747 l 585 823 l 649 823 l 581 685 q 680 557 645 636 q 715 378 715 477 l 715 355 q 674 164 715 250 q 558 33 633 79 q 389 -14 484 -14 q 253 14 315 -14 l 199 -95 l 136 -95 l 203 43 q 98 172 135 91 q 60 355 60 252 l 60 378 m 141 355 q 165 216 141 281 q 236 111 189 152 l 500 649 q 387 678 449 678 q 210 593 278 678 q 141 370 141 508 l 141 355 m 634 378 q 612 509 634 448 q 547 614 589 571 l 284 78 q 389 55 330 55 q 566 139 498 55 q 634 362 634 224 l 634 378 z "},"þ":{"ha":780,"x_min":108,"x_max":699,"o":"m 699 359 q 623 87 699 188 q 419 -14 547 -14 q 189 92 269 -14 l 189 -282 l 108 -282 l 108 1042 l 189 1042 l 189 632 q 418 747 269 747 q 624 648 548 747 q 699 372 699 549 l 699 359 m 618 374 q 560 595 618 514 q 399 677 503 677 q 271 641 325 677 q 189 536 218 605 l 189 183 q 271 89 218 122 q 401 55 325 55 q 561 137 503 55 q 618 374 618 218 z "},"ı":{"ha":309,"x_min":114,"x_max":195,"o":"m 195 0 l 114 0 l 114 734 l 195 734 l 195 0 z "},"Œ":{"ha":1297,"x_min":73,"x_max":1221,"o":"m 1221 0 l 649 0 q 438 -14 521 -14 q 250 36 332 -14 q 121 177 167 86 q 73 384 75 269 l 73 597 q 119 806 73 713 q 248 950 164 899 q 437 1001 331 1001 q 649 987 527 1001 l 1218 987 l 1218 916 l 690 916 l 690 544 l 1152 544 l 1152 473 l 690 473 l 690 71 l 1221 71 l 1221 0 m 438 54 q 607 64 528 54 l 607 922 q 437 932 527 932 q 231 842 307 932 q 155 600 155 753 l 155 391 q 231 145 155 237 q 438 54 308 54 z "},"œ":{"ha":1283,"x_min":64,"x_max":1236,"o":"m 64 378 q 105 570 64 484 q 220 701 146 655 q 388 747 294 747 q 559 700 484 747 q 675 563 633 653 q 789 698 716 648 q 947 747 861 747 q 1158 663 1080 747 q 1236 430 1236 578 l 1236 365 l 718 365 l 718 345 q 785 137 718 220 q 957 55 852 55 q 1177 136 1099 55 l 1213 80 q 957 -14 1122 -14 q 789 35 865 -14 q 675 168 714 84 q 559 33 633 80 q 389 -14 485 -14 q 154 89 243 -14 q 64 361 64 192 l 64 378 m 145 355 q 212 138 145 222 q 389 55 279 55 q 565 138 498 55 q 631 362 631 222 l 631 378 q 564 594 631 510 q 388 678 496 678 q 212 594 279 678 q 145 370 145 510 l 145 355 m 947 678 q 796 610 859 678 q 721 433 734 541 l 1155 433 l 1155 454 q 1098 615 1155 553 q 947 678 1041 678 z "},"ˆ":{"ha":597,"x_min":109,"x_max":485,"o":"m 485 860 l 485 853 l 410 853 l 296 977 l 182 853 l 109 853 l 109 862 l 270 1035 l 321 1035 l 485 860 z "},"˚":{"ha":431,"x_min":79,"x_max":341,"o":"m 79 946 q 118 1038 79 1000 q 210 1075 156 1075 q 302 1038 264 1075 q 341 946 341 1000 q 304 856 341 892 q 210 819 267 819 q 117 856 154 819 q 79 946 79 892 m 132 946 q 154 890 132 912 q 210 867 176 867 q 267 889 243 867 q 290 946 290 911 q 266 1004 290 982 q 210 1027 242 1027 q 154 1004 177 1027 q 132 946 132 981 z "},"˜":{"ha":604,"x_min":72,"x_max":528,"o":"m 528 1007 q 490 902 528 942 q 396 863 452 863 q 295 900 345 863 q 208 937 246 937 q 154 916 176 937 q 133 857 133 895 l 72 859 q 109 962 72 922 q 204 1003 146 1003 q 260 991 237 1003 q 303 966 283 980 q 344 940 323 951 q 393 928 365 928 q 446 951 424 928 q 468 1011 468 973 l 528 1007 z "}," ":{"ha":708,"x_min":0,"x_max":0,"o":""}," ":{"ha":283,"x_min":0,"x_max":0,"o":""},"​":{"ha":0,"x_min":0,"x_max":0,"o":""},"–":{"ha":905,"x_min":108,"x_max":787,"o":"m 787 465 l 108 465 l 108 534 l 787 534 l 787 465 z "},"—":{"ha":1072,"x_min":85,"x_max":991,"o":"m 991 465 l 85 465 l 85 534 l 991 534 l 991 465 z "},"‘":{"ha":247,"x_min":66,"x_max":210,"o":"m 161 1054 l 210 1019 q 147 847 149 939 l 147 760 l 66 760 l 66 836 q 92 956 66 899 q 161 1054 117 1014 z "},"’":{"ha":247,"x_min":42,"x_max":185,"o":"m 90 745 l 42 781 q 105 953 103 863 l 105 1042 l 185 1042 l 185 973 q 90 745 185 831 z "},"‚":{"ha":239,"x_min":28,"x_max":171,"o":"m 76 -157 l 28 -121 q 90 35 84 -46 l 90 139 l 171 139 l 171 71 q 76 -157 171 -71 z "},"“":{"ha":415,"x_min":67,"x_max":381,"o":"m 162 1054 l 211 1019 q 148 847 150 939 l 148 760 l 67 760 l 67 836 q 93 956 67 899 q 162 1054 118 1014 m 332 1054 l 381 1019 q 318 847 320 939 l 318 760 l 237 760 l 237 836 q 263 956 237 899 q 332 1054 288 1014 z "},"”":{"ha":418,"x_min":46,"x_max":355,"o":"m 94 745 l 46 781 q 109 953 107 863 l 109 1042 l 189 1042 l 189 973 q 94 745 189 831 m 260 745 l 212 781 q 275 953 273 863 l 275 1042 l 355 1042 l 355 973 q 260 745 355 831 z "},"„":{"ha":402,"x_min":28,"x_max":330,"o":"m 76 -163 l 28 -127 q 90 50 88 -44 l 90 160 l 171 160 l 171 72 q 76 -163 171 -75 m 235 -163 l 186 -127 q 248 50 246 -45 l 248 160 l 330 160 l 330 72 q 235 -163 330 -75 z "},"•":{"ha":449,"x_min":99,"x_max":351,"o":"m 99 510 q 134 597 99 564 q 224 631 168 631 q 315 598 280 631 q 351 513 349 566 l 351 486 q 316 399 351 431 q 225 366 281 366 q 134 399 168 366 q 99 488 99 433 l 99 510 z "},"…":{"ha":890,"x_min":113,"x_max":772,"o":"m 113 49 q 128 89 113 73 q 170 106 143 106 q 213 89 197 106 q 229 49 229 73 q 213 10 229 25 q 170 -5 197 -5 q 128 10 143 -5 q 113 49 113 25 m 391 49 q 406 89 391 73 q 448 106 421 106 q 491 89 475 106 q 507 49 507 73 q 491 10 507 25 q 448 -5 475 -5 q 406 10 421 -5 q 391 49 391 25 m 656 49 q 672 89 656 73 q 714 106 687 106 q 757 89 741 106 q 772 49 772 73 q 757 10 772 25 q 714 -5 741 -5 q 672 10 687 -5 q 656 49 656 25 z "},"‹":{"ha":413,"x_min":73,"x_max":345,"o":"m 157 376 l 345 113 l 273 113 l 73 370 l 73 383 l 273 640 l 345 640 l 157 376 z "},"›":{"ha":413,"x_min":66,"x_max":338,"o":"m 138 640 l 338 380 l 338 367 l 138 110 l 66 110 l 253 373 l 66 640 l 138 640 z "},"⁄":{"ha":623,"x_min":42,"x_max":574,"o":"m 92 82 l 42 115 l 524 886 l 574 854 l 92 82 z "},"⁴":{"ha":502,"x_min":40,"x_max":471,"o":"m 385 637 l 471 637 l 471 578 l 385 578 l 385 451 l 313 451 l 313 578 l 43 578 l 40 623 l 309 986 l 385 986 l 385 637 m 117 637 l 313 637 l 313 898 l 292 864 l 117 637 z "},"€":{"ha":770,"x_min":56,"x_max":707,"o":"m 554 382 l 270 382 l 270 370 q 343 138 270 220 q 551 56 417 56 q 700 79 631 56 l 707 7 q 551 -14 628 -14 q 285 86 382 -14 q 186 363 189 186 l 186 382 l 56 382 l 56 442 l 186 442 l 186 553 l 56 553 l 56 614 l 186 614 q 283 899 186 798 q 549 1001 380 1001 q 707 980 616 1001 l 700 906 q 550 930 624 930 q 343 849 416 930 q 270 614 270 769 l 554 614 l 554 553 l 270 553 l 270 442 l 554 442 l 554 382 z "},"™":{"ha":857,"x_min":73,"x_max":733,"o":"m 684 905 l 581 623 l 546 623 l 443 910 l 443 623 l 393 623 l 393 987 l 455 987 l 564 696 l 672 987 l 733 987 l 733 623 l 684 623 l 684 905 m 338 941 l 230 941 l 230 623 l 180 623 l 180 941 l 73 941 l 73 987 l 338 987 l 338 941 z "},"−":{"ha":792,"x_min":112,"x_max":678,"o":"m 678 465 l 112 465 l 112 534 l 678 534 l 678 465 z "},"﻿":{"ha":0,"x_min":0,"x_max":0,"o":""},"�":{"ha":1425,"x_min":62,"x_max":1361,"o":"m 711 1097 l 1361 436 l 711 -225 l 62 436 l 711 1097 m 767 273 q 777 332 767 312 q 812 368 787 351 q 893 440 862 394 q 924 536 924 486 q 868 674 924 623 q 710 725 811 725 q 558 678 612 725 q 503 545 504 631 l 640 545 q 661 597 642 579 q 710 614 681 614 q 768 593 749 614 q 787 536 787 571 q 724 431 787 471 q 646 355 662 387 q 630 273 630 324 l 767 273 m 767 211 l 630 211 l 630 96 l 767 96 l 767 211 m 716 -374 l 719 -374 l 719 -376 l 716 -376 l 716 -374 m 715 1467 l 718 1467 l 718 1464 l 715 1464 l 715 1467 z "}," ":{"ha":338,"x_min":0,"x_max":0,"o":""},"­":{"ha":397,"x_min":33,"x_max":358,"o":"m 358 401 l 33 401 l 33 470 l 358 470 l 358 401 z "},"Ð":{"ha":930,"x_min":22,"x_max":843,"o":"m 145 0 l 145 467 l 22 467 l 22 536 l 145 536 l 145 987 l 421 987 q 639 932 543 987 q 789 774 735 877 q 843 539 843 671 l 843 448 q 789 214 843 316 q 638 56 736 111 q 415 0 541 0 l 145 0 m 437 467 l 229 467 l 229 71 l 412 71 q 666 174 572 71 q 760 454 760 277 l 760 541 q 667 813 760 711 q 422 916 574 916 l 229 916 l 229 536 l 437 536 l 437 467 z "},"À":{"ha":867,"x_min":20,"x_max":847,"o":"m 658 277 l 210 277 l 108 0 l 20 0 l 394 987 l 473 987 l 847 0 l 760 0 l 658 277 m 235 348 l 631 348 l 433 886 l 235 348 m 486 1065 l 412 1065 l 258 1255 l 356 1255 l 486 1065 z "},"Á":{"ha":867,"x_min":20,"x_max":847,"o":"m 658 277 l 210 277 l 108 0 l 20 0 l 394 987 l 473 987 l 847 0 l 760 0 l 658 277 m 235 348 l 631 348 l 433 886 l 235 348 m 517 1255 l 615 1255 l 458 1065 l 387 1065 l 517 1255 z "},"Â":{"ha":867,"x_min":20,"x_max":847,"o":"m 658 277 l 210 277 l 108 0 l 20 0 l 394 987 l 473 987 l 847 0 l 760 0 l 658 277 m 235 348 l 631 348 l 433 886 l 235 348 m 625 1074 l 625 1067 l 549 1067 l 435 1191 l 322 1067 l 248 1067 l 248 1076 l 410 1249 l 461 1249 l 625 1074 z "},"Ã":{"ha":867,"x_min":20,"x_max":847,"o":"m 658 277 l 210 277 l 108 0 l 20 0 l 394 987 l 473 987 l 847 0 l 760 0 l 658 277 m 235 348 l 631 348 l 433 886 l 235 348 m 667 1227 q 628 1122 667 1162 q 534 1082 590 1082 q 434 1120 483 1082 q 346 1157 385 1157 q 293 1136 314 1157 q 271 1077 271 1115 l 210 1079 q 247 1182 210 1141 q 342 1223 284 1223 q 398 1211 375 1223 q 441 1185 421 1200 q 483 1160 462 1171 q 531 1148 503 1148 q 584 1171 562 1148 q 606 1231 606 1193 l 667 1227 z "},"Ä":{"ha":867,"x_min":20,"x_max":847,"o":"m 658 277 l 210 277 l 108 0 l 20 0 l 394 987 l 473 987 l 847 0 l 760 0 l 658 277 m 235 348 l 631 348 l 433 886 l 235 348 m 233 1160 q 248 1199 233 1183 q 288 1215 262 1215 q 329 1199 314 1215 q 345 1160 345 1183 q 329 1122 345 1138 q 288 1107 314 1107 q 248 1122 262 1107 q 233 1160 233 1138 m 530 1160 q 545 1199 530 1183 q 585 1215 559 1215 q 626 1199 611 1215 q 642 1160 642 1183 q 626 1122 642 1137 q 585 1106 611 1106 q 545 1122 559 1106 q 530 1160 530 1137 z "},"Å":{"ha":867,"x_min":20,"x_max":847,"o":"m 658 277 l 210 277 l 108 0 l 20 0 l 394 987 l 473 987 l 847 0 l 760 0 l 658 277 m 235 348 l 631 348 l 433 886 l 235 348 m 305 1163 q 343 1255 305 1217 q 436 1292 382 1292 q 528 1255 490 1292 q 567 1163 567 1217 q 530 1073 567 1109 q 436 1036 492 1036 q 342 1073 380 1036 q 305 1163 305 1109 m 357 1163 q 380 1107 357 1129 q 436 1084 402 1084 q 492 1106 469 1084 q 515 1163 515 1128 q 492 1221 515 1199 q 436 1244 468 1244 q 380 1221 403 1244 q 357 1163 357 1198 z "},"Ç":{"ha":902,"x_min":89,"x_max":824,"o":"m 824 308 q 712 69 807 152 q 460 -14 618 -14 q 266 41 351 -14 q 136 197 182 96 q 89 427 90 298 l 89 555 q 135 789 89 687 q 268 946 181 890 q 467 1001 354 1001 q 717 915 625 1001 q 824 678 809 829 l 740 678 q 467 930 709 930 q 253 829 332 930 q 173 552 173 729 l 173 431 q 251 159 173 260 q 460 57 328 57 q 658 120 591 57 q 740 308 724 182 l 824 308 m 494 -6 l 486 -50 q 597 -165 597 -64 q 544 -264 597 -228 q 398 -301 490 -301 l 393 -248 q 492 -226 454 -248 q 530 -167 530 -204 q 501 -113 530 -127 q 411 -92 471 -98 l 431 -6 l 494 -6 z "},"È":{"ha":790,"x_min":125,"x_max":739,"o":"m 670 473 l 208 473 l 208 71 l 739 71 l 739 0 l 125 0 l 125 987 l 736 987 l 736 916 l 208 916 l 208 544 l 670 544 l 670 473 m 470 1069 l 396 1069 l 243 1259 l 340 1259 l 470 1069 z "},"É":{"ha":790,"x_min":125,"x_max":739,"o":"m 670 473 l 208 473 l 208 71 l 739 71 l 739 0 l 125 0 l 125 987 l 736 987 l 736 916 l 208 916 l 208 544 l 670 544 l 670 473 m 501 1259 l 600 1259 l 443 1069 l 372 1069 l 501 1259 z "},"Ê":{"ha":790,"x_min":125,"x_max":739,"o":"m 670 473 l 208 473 l 208 71 l 739 71 l 739 0 l 125 0 l 125 987 l 736 987 l 736 916 l 208 916 l 208 544 l 670 544 l 670 473 m 609 1078 l 609 1071 l 534 1071 l 420 1195 l 307 1071 l 233 1071 l 233 1080 l 394 1253 l 446 1253 l 609 1078 z "},"Ë":{"ha":790,"x_min":125,"x_max":739,"o":"m 670 473 l 208 473 l 208 71 l 739 71 l 739 0 l 125 0 l 125 987 l 736 987 l 736 916 l 208 916 l 208 544 l 670 544 l 670 473 m 217 1164 q 232 1203 217 1187 q 273 1219 247 1219 q 314 1203 298 1219 q 329 1164 329 1187 q 314 1126 329 1142 q 273 1111 298 1111 q 232 1126 247 1111 q 217 1164 217 1142 m 514 1164 q 529 1203 514 1187 q 570 1219 544 1219 q 611 1203 595 1219 q 626 1164 626 1187 q 611 1126 626 1141 q 570 1110 595 1110 q 529 1126 544 1110 q 514 1164 514 1141 z "},"Ì":{"ha":370,"x_min":9,"x_max":236,"o":"m 227 0 l 143 0 l 143 987 l 227 987 l 227 0 m 236 1069 l 162 1069 l 9 1259 l 106 1259 l 236 1069 z "},"Í":{"ha":370,"x_min":137,"x_max":365,"o":"m 227 0 l 143 0 l 143 987 l 227 987 l 227 0 m 267 1259 l 365 1259 l 208 1069 l 137 1069 l 267 1259 z "},"Î":{"ha":370,"x_min":-1,"x_max":375,"o":"m 227 0 l 143 0 l 143 987 l 227 987 l 227 0 m 375 1078 l 375 1071 l 300 1071 l 186 1195 l 73 1071 l -1 1071 l -1 1080 l 160 1253 l 212 1253 l 375 1078 z "},"Ï":{"ha":370,"x_min":-17,"x_max":392,"o":"m 227 0 l 143 0 l 143 987 l 227 987 l 227 0 m -17 1164 q -2 1203 -17 1187 q 39 1219 13 1219 q 80 1203 64 1219 q 95 1164 95 1187 q 80 1126 95 1142 q 39 1111 64 1111 q -2 1126 13 1111 q -17 1164 -17 1142 m 280 1164 q 295 1203 280 1187 q 336 1219 310 1219 q 377 1203 361 1219 q 392 1164 392 1187 q 377 1126 392 1141 q 336 1110 361 1110 q 295 1126 310 1110 q 280 1164 280 1141 z "},"Ñ":{"ha":986,"x_min":125,"x_max":860,"o":"m 860 0 l 777 0 l 209 845 l 209 0 l 125 0 l 125 987 l 209 987 l 777 142 l 777 987 l 860 987 l 860 0 m 724 1227 q 685 1122 724 1162 q 591 1082 647 1082 q 491 1120 540 1082 q 403 1157 441 1157 q 350 1136 371 1157 q 328 1077 328 1115 l 267 1079 q 304 1182 267 1141 q 399 1223 341 1223 q 455 1211 432 1223 q 498 1185 478 1200 q 539 1160 519 1171 q 588 1148 560 1148 q 641 1171 619 1148 q 663 1231 663 1193 l 724 1227 z "},"Ò":{"ha":940,"x_min":85,"x_max":854,"o":"m 854 440 q 807 201 854 304 q 673 42 760 98 q 471 -14 585 -14 q 191 110 298 -14 q 85 444 85 234 l 85 546 q 133 785 85 681 q 268 945 180 889 q 469 1001 355 1001 q 670 946 583 1001 q 805 791 758 891 q 854 558 852 690 l 854 440 m 771 547 q 690 827 771 726 q 469 928 610 928 q 250 826 332 928 q 168 543 168 725 l 168 440 q 250 162 168 264 q 471 59 331 59 q 692 160 612 59 q 771 443 771 262 l 771 547 m 519 1074 l 445 1074 l 292 1263 l 389 1263 l 519 1074 z "},"Ó":{"ha":940,"x_min":85,"x_max":854,"o":"m 854 440 q 807 201 854 304 q 673 42 760 98 q 471 -14 585 -14 q 191 110 298 -14 q 85 444 85 234 l 85 546 q 133 785 85 681 q 268 945 180 889 q 469 1001 355 1001 q 670 946 583 1001 q 805 791 758 891 q 854 558 852 690 l 854 440 m 771 547 q 690 827 771 726 q 469 928 610 928 q 250 826 332 928 q 168 543 168 725 l 168 440 q 250 162 168 264 q 471 59 331 59 q 692 160 612 59 q 771 443 771 262 l 771 547 m 550 1263 l 648 1263 l 492 1074 l 420 1074 l 550 1263 z "},"Ô":{"ha":940,"x_min":85,"x_max":854,"o":"m 854 440 q 807 201 854 304 q 673 42 760 98 q 471 -14 585 -14 q 191 110 298 -14 q 85 444 85 234 l 85 546 q 133 785 85 681 q 268 945 180 889 q 469 1001 355 1001 q 670 946 583 1001 q 805 791 758 891 q 854 558 852 690 l 854 440 m 771 547 q 690 827 771 726 q 469 928 610 928 q 250 826 332 928 q 168 543 168 725 l 168 440 q 250 162 168 264 q 471 59 331 59 q 692 160 612 59 q 771 443 771 262 l 771 547 m 658 1082 l 658 1075 l 583 1075 l 469 1199 l 355 1075 l 281 1075 l 281 1084 l 443 1257 l 494 1257 l 658 1082 z "},"Õ":{"ha":940,"x_min":85,"x_max":854,"o":"m 854 440 q 807 201 854 304 q 673 42 760 98 q 471 -14 585 -14 q 191 110 298 -14 q 85 444 85 234 l 85 546 q 133 785 85 681 q 268 945 180 889 q 469 1001 355 1001 q 670 946 583 1001 q 805 791 758 891 q 854 558 852 690 l 854 440 m 771 547 q 690 827 771 726 q 469 928 610 928 q 250 826 332 928 q 168 543 168 725 l 168 440 q 250 162 168 264 q 471 59 331 59 q 692 160 612 59 q 771 443 771 262 l 771 547 m 700 1235 q 662 1130 700 1170 q 568 1090 623 1090 q 467 1128 516 1090 q 379 1165 418 1165 q 326 1144 347 1165 q 304 1085 304 1123 l 243 1087 q 280 1190 243 1149 q 376 1231 317 1231 q 431 1219 408 1231 q 475 1194 454 1208 q 516 1168 495 1179 q 564 1156 536 1156 q 617 1179 595 1156 q 640 1239 640 1201 l 700 1235 z "},"Ö":{"ha":940,"x_min":85,"x_max":854,"o":"m 854 440 q 807 201 854 304 q 673 42 760 98 q 471 -14 585 -14 q 191 110 298 -14 q 85 444 85 234 l 85 546 q 133 785 85 681 q 268 945 180 889 q 469 1001 355 1001 q 670 946 583 1001 q 805 791 758 891 q 854 558 852 690 l 854 440 m 771 547 q 690 827 771 726 q 469 928 610 928 q 250 826 332 928 q 168 543 168 725 l 168 440 q 250 162 168 264 q 471 59 331 59 q 692 160 612 59 q 771 443 771 262 l 771 547 m 266 1168 q 281 1207 266 1192 q 321 1223 296 1223 q 362 1207 347 1223 q 378 1168 378 1192 q 362 1131 378 1146 q 321 1115 347 1115 q 281 1131 296 1115 q 266 1168 266 1146 m 563 1168 q 578 1207 563 1191 q 618 1223 593 1223 q 660 1207 644 1223 q 675 1168 675 1191 q 660 1130 675 1145 q 618 1114 644 1114 q 578 1130 593 1114 q 563 1168 563 1145 z "},"Ù":{"ha":913,"x_min":110,"x_max":805,"o":"m 805 987 l 805 313 q 761 140 804 214 q 638 26 718 66 q 457 -14 559 -14 q 207 72 301 -14 q 110 307 113 157 l 110 987 l 193 987 l 193 319 q 264 126 193 195 q 457 57 335 57 q 650 126 579 57 q 721 319 721 195 l 721 987 l 805 987 m 513 1065 l 439 1065 l 286 1255 l 383 1255 l 513 1065 z "},"Ú":{"ha":913,"x_min":110,"x_max":805,"o":"m 805 987 l 805 313 q 761 140 804 214 q 638 26 718 66 q 457 -14 559 -14 q 207 72 301 -14 q 110 307 113 157 l 110 987 l 193 987 l 193 319 q 264 126 193 195 q 457 57 335 57 q 650 126 579 57 q 721 319 721 195 l 721 987 l 805 987 m 544 1255 l 642 1255 l 486 1065 l 414 1065 l 544 1255 z "},"Û":{"ha":913,"x_min":110,"x_max":805,"o":"m 805 987 l 805 313 q 761 140 804 214 q 638 26 718 66 q 457 -14 559 -14 q 207 72 301 -14 q 110 307 113 157 l 110 987 l 193 987 l 193 319 q 264 126 193 195 q 457 57 335 57 q 650 126 579 57 q 721 319 721 195 l 721 987 l 805 987 m 652 1074 l 652 1067 l 576 1067 l 463 1191 l 349 1067 l 275 1067 l 275 1076 l 437 1249 l 488 1249 l 652 1074 z "},"Ü":{"ha":913,"x_min":110,"x_max":805,"o":"m 805 987 l 805 313 q 761 140 804 214 q 638 26 718 66 q 457 -14 559 -14 q 207 72 301 -14 q 110 307 113 157 l 110 987 l 193 987 l 193 319 q 264 126 193 195 q 457 57 335 57 q 650 126 579 57 q 721 319 721 195 l 721 987 l 805 987 m 260 1160 q 275 1199 260 1183 q 315 1215 290 1215 q 356 1199 341 1215 q 372 1160 372 1183 q 356 1122 372 1138 q 315 1107 341 1107 q 275 1122 290 1107 q 260 1160 260 1138 m 557 1160 q 572 1199 557 1183 q 612 1215 587 1215 q 653 1199 638 1215 q 669 1160 669 1183 q 653 1122 669 1137 q 612 1106 638 1106 q 572 1122 587 1106 q 557 1160 557 1137 z "},"Ý":{"ha":831,"x_min":16,"x_max":812,"o":"m 414 449 l 716 987 l 812 987 l 456 372 l 456 0 l 372 0 l 372 372 l 16 987 l 115 987 l 414 449 m 496 1251 l 595 1251 l 438 1061 l 367 1061 l 496 1251 z "},"à":{"ha":744,"x_min":68,"x_max":656,"o":"m 569 0 q 553 102 557 35 q 445 17 511 47 q 304 -14 378 -14 q 133 45 199 -14 q 68 195 68 104 q 157 364 68 302 q 406 427 246 427 l 553 427 l 553 510 q 504 634 553 589 q 363 679 456 679 q 222 635 278 679 q 167 531 167 592 l 85 532 q 167 683 85 619 q 367 747 248 747 q 561 686 490 747 q 633 515 631 625 l 633 168 q 656 8 633 61 l 656 0 l 569 0 m 314 58 q 459 98 395 58 q 553 203 524 137 l 553 364 l 408 364 q 218 320 286 363 q 149 201 149 277 q 195 99 149 140 q 314 58 241 58 m 443 852 l 369 852 l 216 1042 l 313 1042 l 443 852 z "},"á":{"ha":744,"x_min":68,"x_max":656,"o":"m 569 0 q 553 102 557 35 q 445 17 511 47 q 304 -14 378 -14 q 133 45 199 -14 q 68 195 68 104 q 157 364 68 302 q 406 427 246 427 l 553 427 l 553 510 q 504 634 553 589 q 363 679 456 679 q 222 635 278 679 q 167 531 167 592 l 85 532 q 167 683 85 619 q 367 747 248 747 q 561 686 490 747 q 633 515 631 625 l 633 168 q 656 8 633 61 l 656 0 l 569 0 m 314 58 q 459 98 395 58 q 553 203 524 137 l 553 364 l 408 364 q 218 320 286 363 q 149 201 149 277 q 195 99 149 140 q 314 58 241 58 m 474 1042 l 572 1042 l 416 852 l 345 852 l 474 1042 z "},"â":{"ha":744,"x_min":68,"x_max":656,"o":"m 569 0 q 553 102 557 35 q 445 17 511 47 q 304 -14 378 -14 q 133 45 199 -14 q 68 195 68 104 q 157 364 68 302 q 406 427 246 427 l 553 427 l 553 510 q 504 634 553 589 q 363 679 456 679 q 222 635 278 679 q 167 531 167 592 l 85 532 q 167 683 85 619 q 367 747 248 747 q 561 686 490 747 q 633 515 631 625 l 633 168 q 656 8 633 61 l 656 0 l 569 0 m 314 58 q 459 98 395 58 q 553 203 524 137 l 553 364 l 408 364 q 218 320 286 363 q 149 201 149 277 q 195 99 149 140 q 314 58 241 58 m 582 860 l 582 853 l 507 853 l 393 977 l 279 853 l 205 853 l 205 862 l 367 1035 l 418 1035 l 582 860 z "},"ã":{"ha":744,"x_min":68,"x_max":656,"o":"m 569 0 q 553 102 557 35 q 445 17 511 47 q 304 -14 378 -14 q 133 45 199 -14 q 68 195 68 104 q 157 364 68 302 q 406 427 246 427 l 553 427 l 553 510 q 504 634 553 589 q 363 679 456 679 q 222 635 278 679 q 167 531 167 592 l 85 532 q 167 683 85 619 q 367 747 248 747 q 561 686 490 747 q 633 515 631 625 l 633 168 q 656 8 633 61 l 656 0 l 569 0 m 314 58 q 459 98 395 58 q 553 203 524 137 l 553 364 l 408 364 q 218 320 286 363 q 149 201 149 277 q 195 99 149 140 q 314 58 241 58 m 624 1013 q 586 908 624 948 q 492 869 547 869 q 391 906 440 869 q 303 943 342 943 q 250 922 271 943 q 229 863 229 901 l 168 865 q 204 968 168 928 q 300 1009 241 1009 q 355 998 332 1009 q 399 972 378 986 q 440 946 419 958 q 488 935 460 935 q 542 957 519 935 q 564 1017 564 979 l 624 1013 z "},"ä":{"ha":744,"x_min":68,"x_max":656,"o":"m 569 0 q 553 102 557 35 q 445 17 511 47 q 304 -14 378 -14 q 133 45 199 -14 q 68 195 68 104 q 157 364 68 302 q 406 427 246 427 l 553 427 l 553 510 q 504 634 553 589 q 363 679 456 679 q 222 635 278 679 q 167 531 167 592 l 85 532 q 167 683 85 619 q 367 747 248 747 q 561 686 490 747 q 633 515 631 625 l 633 168 q 656 8 633 61 l 656 0 l 569 0 m 314 58 q 459 98 395 58 q 553 203 524 137 l 553 364 l 408 364 q 218 320 286 363 q 149 201 149 277 q 195 99 149 140 q 314 58 241 58 m 190 947 q 205 986 190 970 q 245 1002 220 1002 q 287 986 271 1002 q 302 947 302 970 q 287 909 302 924 q 245 893 271 893 q 205 909 220 893 q 190 947 190 924 m 487 946 q 502 985 487 969 q 543 1001 517 1001 q 584 985 568 1001 q 599 946 599 969 q 584 908 599 924 q 543 892 568 892 q 502 908 517 892 q 487 946 487 924 z "},"å":{"ha":744,"x_min":68,"x_max":656,"o":"m 569 0 q 553 102 557 35 q 445 17 511 47 q 304 -14 378 -14 q 133 45 199 -14 q 68 195 68 104 q 157 364 68 302 q 406 427 246 427 l 553 427 l 553 510 q 504 634 553 589 q 363 679 456 679 q 222 635 278 679 q 167 531 167 592 l 85 532 q 167 683 85 619 q 367 747 248 747 q 561 686 490 747 q 633 515 631 625 l 633 168 q 656 8 633 61 l 656 0 l 569 0 m 314 58 q 459 98 395 58 q 553 203 524 137 l 553 364 l 408 364 q 218 320 286 363 q 149 201 149 277 q 195 99 149 140 q 314 58 241 58 m 262 949 q 301 1041 262 1004 q 393 1078 339 1078 q 486 1041 447 1078 q 524 949 524 1004 q 487 859 524 896 q 393 823 450 823 q 300 859 337 823 q 262 949 262 896 m 315 949 q 337 893 315 916 q 393 871 359 871 q 450 893 427 871 q 473 949 473 915 q 449 1008 473 985 q 393 1030 425 1030 q 337 1007 360 1030 q 315 949 315 984 z "},"ç":{"ha":715,"x_min":64,"x_max":659,"o":"m 377 55 q 519 103 462 55 q 581 227 576 151 l 659 227 q 617 104 656 159 q 514 18 578 49 q 377 -14 450 -14 q 148 87 233 -14 q 64 357 64 187 l 64 381 q 102 573 64 490 q 211 702 140 656 q 376 747 281 747 q 575 675 497 747 q 659 486 654 604 l 581 486 q 519 625 576 572 q 376 678 463 678 q 206 599 267 678 q 145 376 145 519 l 145 353 q 206 134 145 212 q 377 55 267 55 m 399 -6 l 391 -50 q 503 -165 503 -64 q 450 -264 503 -228 q 304 -301 396 -301 l 299 -248 q 398 -226 359 -248 q 436 -167 436 -204 q 407 -113 436 -127 q 317 -92 377 -98 l 336 -6 l 399 -6 z "},"è":{"ha":718,"x_min":61,"x_max":665,"o":"m 390 -14 q 221 33 296 -14 q 103 161 145 79 q 61 346 61 243 l 61 375 q 102 566 61 481 q 216 699 143 650 q 375 747 290 747 q 587 656 509 747 q 665 407 665 565 l 665 361 l 142 361 l 142 346 q 213 138 142 221 q 393 55 285 55 q 508 79 458 55 q 599 155 558 102 l 650 116 q 390 -14 560 -14 m 375 678 q 221 611 283 678 q 144 431 158 544 l 585 431 l 585 439 q 524 612 581 545 q 375 678 467 678 m 434 852 l 360 852 l 207 1042 l 304 1042 l 434 852 z "},"é":{"ha":718,"x_min":61,"x_max":665,"o":"m 390 -14 q 221 33 296 -14 q 103 161 145 79 q 61 346 61 243 l 61 375 q 102 566 61 481 q 216 699 143 650 q 375 747 290 747 q 587 656 509 747 q 665 407 665 565 l 665 361 l 142 361 l 142 346 q 213 138 142 221 q 393 55 285 55 q 508 79 458 55 q 599 155 558 102 l 650 116 q 390 -14 560 -14 m 375 678 q 221 611 283 678 q 144 431 158 544 l 585 431 l 585 439 q 524 612 581 545 q 375 678 467 678 m 465 1042 l 564 1042 l 407 852 l 336 852 l 465 1042 z "},"ê":{"ha":718,"x_min":61,"x_max":665,"o":"m 390 -14 q 221 33 296 -14 q 103 161 145 79 q 61 346 61 243 l 61 375 q 102 566 61 481 q 216 699 143 650 q 375 747 290 747 q 587 656 509 747 q 665 407 665 565 l 665 361 l 142 361 l 142 346 q 213 138 142 221 q 393 55 285 55 q 508 79 458 55 q 599 155 558 102 l 650 116 q 390 -14 560 -14 m 375 678 q 221 611 283 678 q 144 431 158 544 l 585 431 l 585 439 q 524 612 581 545 q 375 678 467 678 m 573 860 l 573 853 l 498 853 l 384 977 l 271 853 l 197 853 l 197 862 l 358 1035 l 410 1035 l 573 860 z "},"ë":{"ha":718,"x_min":61,"x_max":665,"o":"m 390 -14 q 221 33 296 -14 q 103 161 145 79 q 61 346 61 243 l 61 375 q 102 566 61 481 q 216 699 143 650 q 375 747 290 747 q 587 656 509 747 q 665 407 665 565 l 665 361 l 142 361 l 142 346 q 213 138 142 221 q 393 55 285 55 q 508 79 458 55 q 599 155 558 102 l 650 116 q 390 -14 560 -14 m 375 678 q 221 611 283 678 q 144 431 158 544 l 585 431 l 585 439 q 524 612 581 545 q 375 678 467 678 m 181 947 q 196 986 181 970 q 237 1002 211 1002 q 278 986 262 1002 q 293 947 293 970 q 278 909 293 924 q 237 893 262 893 q 196 909 211 893 q 181 947 181 924 m 478 946 q 493 985 478 969 q 534 1001 508 1001 q 575 985 559 1001 q 590 946 590 969 q 575 908 590 924 q 534 892 559 892 q 493 908 508 892 q 478 946 478 924 z "},"ì":{"ha":309,"x_min":-20,"x_max":207,"o":"m 195 0 l 114 0 l 114 734 l 195 734 l 195 0 m 207 844 l 133 844 l -20 1034 l 77 1034 l 207 844 z "},"í":{"ha":309,"x_min":108,"x_max":336,"o":"m 195 0 l 114 0 l 114 734 l 195 734 l 195 0 m 237 1034 l 336 1034 l 179 844 l 108 844 l 237 1034 z "},"î":{"ha":309,"x_min":-31,"x_max":346,"o":"m 195 0 l 114 0 l 114 734 l 195 734 l 195 0 m 346 852 l 346 845 l 271 845 l 157 969 l 43 845 l -31 845 l -31 854 l 131 1027 l 182 1027 l 346 852 z "},"ï":{"ha":309,"x_min":-46,"x_max":363,"o":"m 195 0 l 114 0 l 114 734 l 195 734 l 195 0 m -46 939 q -31 978 -46 962 q 9 994 -16 994 q 51 978 35 994 q 66 939 66 962 q 51 901 66 916 q 9 885 35 885 q -31 901 -16 885 q -46 939 -46 916 m 251 938 q 266 977 251 961 q 307 993 281 993 q 348 977 332 993 q 363 938 363 961 q 348 900 363 916 q 307 884 332 884 q 266 900 281 884 q 251 938 251 916 z "},"ñ":{"ha":763,"x_min":106,"x_max":659,"o":"m 183 734 l 186 608 q 289 712 227 676 q 425 747 351 747 q 601 681 543 747 q 659 481 659 614 l 659 0 l 578 0 l 578 482 q 537 629 578 581 q 406 677 496 677 q 272 630 330 677 q 186 503 214 583 l 186 0 l 106 0 l 106 734 l 183 734 m 621 1013 q 583 908 621 947 q 489 868 545 868 q 388 905 437 868 q 300 943 339 943 q 247 922 269 943 q 226 863 226 901 l 165 865 q 202 968 165 927 q 297 1008 239 1008 q 353 997 330 1008 q 396 971 376 985 q 437 945 416 957 q 486 934 458 934 q 539 956 517 934 q 561 1017 561 979 l 621 1013 z "},"ò":{"ha":778,"x_min":61,"x_max":716,"o":"m 61 378 q 102 568 61 484 q 218 700 143 653 q 388 747 293 747 q 625 645 534 747 q 716 372 716 542 l 716 355 q 675 164 716 249 q 559 33 634 79 q 389 -14 485 -14 q 152 89 243 -14 q 61 361 61 192 l 61 378 m 142 355 q 211 139 142 224 q 389 55 279 55 q 567 139 499 55 q 635 362 635 224 l 635 378 q 604 532 635 462 q 517 640 573 602 q 388 678 460 678 q 211 593 279 678 q 142 370 142 508 l 142 355 m 437 852 l 363 852 l 210 1042 l 308 1042 l 437 852 z "},"ó":{"ha":778,"x_min":61,"x_max":716,"o":"m 61 378 q 102 568 61 484 q 218 700 143 653 q 388 747 293 747 q 625 645 534 747 q 716 372 716 542 l 716 355 q 675 164 716 249 q 559 33 634 79 q 389 -14 485 -14 q 152 89 243 -14 q 61 361 61 192 l 61 378 m 142 355 q 211 139 142 224 q 389 55 279 55 q 567 139 499 55 q 635 362 635 224 l 635 378 q 604 532 635 462 q 517 640 573 602 q 388 678 460 678 q 211 593 279 678 q 142 370 142 508 l 142 355 m 469 1042 l 567 1042 l 410 852 l 339 852 l 469 1042 z "},"ô":{"ha":778,"x_min":61,"x_max":716,"o":"m 61 378 q 102 568 61 484 q 218 700 143 653 q 388 747 293 747 q 625 645 534 747 q 716 372 716 542 l 716 355 q 675 164 716 249 q 559 33 634 79 q 389 -14 485 -14 q 152 89 243 -14 q 61 361 61 192 l 61 378 m 142 355 q 211 139 142 224 q 389 55 279 55 q 567 139 499 55 q 635 362 635 224 l 635 378 q 604 532 635 462 q 517 640 573 602 q 388 678 460 678 q 211 593 279 678 q 142 370 142 508 l 142 355 m 576 860 l 576 853 l 501 853 l 387 977 l 274 853 l 200 853 l 200 862 l 361 1035 l 413 1035 l 576 860 z "},"õ":{"ha":778,"x_min":61,"x_max":716,"o":"m 61 378 q 102 568 61 484 q 218 700 143 653 q 388 747 293 747 q 625 645 534 747 q 716 372 716 542 l 716 355 q 675 164 716 249 q 559 33 634 79 q 389 -14 485 -14 q 152 89 243 -14 q 61 361 61 192 l 61 378 m 142 355 q 211 139 142 224 q 389 55 279 55 q 567 139 499 55 q 635 362 635 224 l 635 378 q 604 532 635 462 q 517 640 573 602 q 388 678 460 678 q 211 593 279 678 q 142 370 142 508 l 142 355 m 618 1013 q 580 908 618 947 q 486 868 542 868 q 386 905 435 868 q 298 943 336 943 q 244 922 266 943 q 223 863 223 901 l 162 865 q 199 968 162 927 q 294 1008 236 1008 q 350 997 327 1008 q 393 971 373 985 q 434 945 414 957 q 483 934 455 934 q 536 956 514 934 q 558 1017 558 979 l 618 1013 z "},"ö":{"ha":778,"x_min":61,"x_max":716,"o":"m 61 378 q 102 568 61 484 q 218 700 143 653 q 388 747 293 747 q 625 645 534 747 q 716 372 716 542 l 716 355 q 675 164 716 249 q 559 33 634 79 q 389 -14 485 -14 q 152 89 243 -14 q 61 361 61 192 l 61 378 m 142 355 q 211 139 142 224 q 389 55 279 55 q 567 139 499 55 q 635 362 635 224 l 635 378 q 604 532 635 462 q 517 640 573 602 q 388 678 460 678 q 211 593 279 678 q 142 370 142 508 l 142 355 m 184 947 q 199 986 184 970 q 240 1002 214 1002 q 281 986 266 1002 q 296 947 296 970 q 281 909 296 924 q 240 893 266 893 q 199 909 214 893 q 184 947 184 924 m 481 946 q 496 985 481 969 q 537 1001 511 1001 q 578 985 563 1001 q 593 946 593 969 q 578 908 593 924 q 537 892 563 892 q 496 908 511 892 q 481 946 481 924 z "},"ù":{"ha":763,"x_min":103,"x_max":658,"o":"m 578 93 q 344 -14 505 -14 q 165 55 227 -14 q 103 256 104 123 l 103 734 l 184 734 l 184 267 q 353 57 184 57 q 576 203 530 57 l 576 734 l 658 734 l 658 0 l 579 0 l 578 93 m 439 852 l 365 852 l 212 1042 l 309 1042 l 439 852 z "},"ú":{"ha":763,"x_min":103,"x_max":658,"o":"m 578 93 q 344 -14 505 -14 q 165 55 227 -14 q 103 256 104 123 l 103 734 l 184 734 l 184 267 q 353 57 184 57 q 576 203 530 57 l 576 734 l 658 734 l 658 0 l 579 0 l 578 93 m 470 1042 l 568 1042 l 412 852 l 340 852 l 470 1042 z "},"û":{"ha":763,"x_min":103,"x_max":658,"o":"m 578 93 q 344 -14 505 -14 q 165 55 227 -14 q 103 256 104 123 l 103 734 l 184 734 l 184 267 q 353 57 184 57 q 576 203 530 57 l 576 734 l 658 734 l 658 0 l 579 0 l 578 93 m 578 860 l 578 853 l 503 853 l 389 977 l 275 853 l 201 853 l 201 862 l 363 1035 l 414 1035 l 578 860 z "},"ü":{"ha":763,"x_min":103,"x_max":658,"o":"m 578 93 q 344 -14 505 -14 q 165 55 227 -14 q 103 256 104 123 l 103 734 l 184 734 l 184 267 q 353 57 184 57 q 576 203 530 57 l 576 734 l 658 734 l 658 0 l 579 0 l 578 93 m 186 947 q 201 986 186 970 q 241 1002 216 1002 q 282 986 267 1002 q 298 947 298 970 q 282 909 298 924 q 241 893 267 893 q 201 909 216 893 q 186 947 186 924 m 483 946 q 498 985 483 969 q 538 1001 513 1001 q 579 985 564 1001 q 595 946 595 969 q 579 908 595 924 q 538 892 564 892 q 498 908 513 892 q 483 946 483 924 z "},"ý":{"ha":660,"x_min":22,"x_max":640,"o":"m 338 117 l 553 734 l 640 734 l 327 -125 l 311 -163 q 124 -296 250 -296 q 62 -287 95 -296 l 61 -220 l 103 -224 q 200 -194 163 -224 q 262 -93 237 -165 l 298 6 l 22 734 l 111 734 l 338 117 m 429 1042 l 528 1042 l 371 852 l 300 852 l 429 1042 z "},"ÿ":{"ha":660,"x_min":22,"x_max":640,"o":"m 338 117 l 553 734 l 640 734 l 327 -125 l 311 -163 q 124 -296 250 -296 q 62 -287 95 -296 l 61 -220 l 103 -224 q 200 -194 163 -224 q 262 -93 237 -165 l 298 6 l 22 734 l 111 734 l 338 117 m 145 947 q 160 986 145 970 q 201 1002 175 1002 q 242 986 227 1002 q 257 947 257 970 q 242 909 257 924 q 201 893 227 893 q 160 909 175 893 q 145 947 145 924 m 442 946 q 457 985 442 969 q 498 1001 472 1001 q 539 985 524 1001 q 554 946 554 969 q 539 908 554 924 q 498 892 524 892 q 457 908 472 892 q 442 946 442 924 z "},"′":{"ha":236,"x_min":81,"x_max":153,"o":"m 153 946 l 142 739 l 81 739 q 84 1042 84 940 l 153 1042 l 153 946 z "},"″":{"ha":399,"x_min":97,"x_max":325,"o":"m 165 947 l 151 734 l 97 734 l 99 1042 l 165 1042 l 165 947 m 325 947 l 311 734 l 256 734 l 259 1042 l 325 1042 l 325 947 z "},"ʼ":{"ha":247,"x_min":42,"x_max":185,"o":"m 90 745 l 42 781 q 105 953 103 863 l 105 1042 l 185 1042 l 185 973 q 90 745 185 831 z "}}}
